<?xml version="1.0" standalone="no"?><!DOCTYPE svg PUBLIC "-//W3C//DTD SVG 1.1//EN"
        "http://www.w3.org/Graphics/SVG/1.1/DTD/svg11.dtd">
<svg class="icon" width="200px" height="200.00px" viewBox="0 0 1024 1024" version="1.1"
     xmlns="http://www.w3.org/2000/svg">
    <path fill="#333333"
          d="M892.238614 448.693124l-83.626486 166.711116c-5.707553 5.671429-13.149046 8.272339-20.626662 8.091721v0.722475h-168.300561v224.436871c0 61.916111-50.248139 112.16425-112.272622 112.164251h-56.027939c-61.988359 0-112.272621-50.248139-112.272621-112.164251V624.218436H226.911349c-30.958056 0-56.136311-25.069884-56.136311-56.136311V287.617314c0-31.030303 25.178255-56.136311 56.136311-56.136311h112.16425V175.41694c0-62.024482 50.248139-112.272621 112.272621-112.272621h56.02794c61.988359 0 112.272621 50.248139 112.272621 112.272621v56.02794h167.252972c7.838854-0.433485 15.749956 1.950683 21.710375 7.911101l83.626486 166.711116c5.888172 10.692631 8.38071 13.618655 8.019473 21.349138-0.903094 5.707553-1.697816 9.536671-8.019473 21.276889zM395.248033 848.655307c0 30.958056 25.069884 56.027939 56.136311 56.02794h56.027939c31.030303 0 56.136311-25.069884 56.136311-56.02794V624.218436h-168.300561v224.436871zM563.548594 175.41694c0-31.030303-25.106008-56.136311-56.136311-56.136311h-56.027939c-31.030303 0-56.136311 25.106008-56.136311 56.136311v56.02794H563.548594V175.41694z m212.082549 117.618937c-4.551593-3.215014-9.681166-5.418563-15.749956-5.418563H254.94338c-15.49709 0-28.032032 12.534942-28.032031 28.032032v224.436871c0 15.49709 12.534942 28.032032 28.032031 28.032032h504.937807c5.707553 0 10.692631-2.059054 15.135852-4.985078l68.057149-135.644689-67.443045-134.452605z"/>
</svg>
