<?xml version="1.0" standalone="no"?><!DOCTYPE svg PUBLIC "-//W3C//DTD SVG 1.1//EN"
        "http://www.w3.org/Graphics/SVG/1.1/DTD/svg11.dtd">
<svg class="icon" width="200px" height="200.00px" viewBox="0 0 1024 1024" version="1.1"
     xmlns="http://www.w3.org/2000/svg">
    <path fill="#333333"
          d="M539.52727 509.471248c0.07225 0.903126 0.541875 1.589501 0.541876 2.492627V932.748183c0 15.461511-12.535384 28.105271-28.105271 28.105271-15.497636 0-28.033021-12.643759-28.033021-28.105271V511.963875c0-0.903126 0.4335-1.589501 0.541876-2.492627-95.37007-15.317011-168.848374-108.700205-168.848374-221.952162 0-123.944966 87.892189-224.372539 196.339519-224.37254 108.519579 0 196.447894 100.427574 196.447894 224.37254-0.036125 113.251958-73.514429 206.671276-168.884499 221.952162zM511.963875 119.212587c-77.379807 0-140.201228 75.356805-140.201228 168.306499 0 92.949693 62.821421 168.306498 140.201228 168.306498 77.488182 0 140.273478-75.356805 140.273478-168.306498 0-92.949693-62.785296-168.306498-140.273478-168.306499z"/>
</svg>
