<?xml version="1.0" standalone="no"?><!DOCTYPE svg PUBLIC "-//W3C//DTD SVG 1.1//EN"
        "http://www.w3.org/Graphics/SVG/1.1/DTD/svg11.dtd">
<svg class="icon" width="200px" height="200.00px" viewBox="0 0 1024 1024" version="1.1"
     xmlns="http://www.w3.org/2000/svg">
    <path fill="#333333"
          d="M596.135187 287.519086c0 39.484654-23.481267 66.108798-56.029916 78.644182V91.179567c0-15.497636-12.535384-28.033021-28.105271-28.033021-15.497636 0-28.033021 12.535384-28.033021 28.033021v274.983701c-32.657024-12.535384-56.138291-39.159529-56.138291-78.644182V91.179567c0-15.497636-12.535384-28.033021-28.03302-28.033021-15.497636 0-28.033021 12.535384-28.033021 28.033021v196.339519c0 67.878925 48.118535 124.450716 112.168207 137.455725V932.748183c0 15.461511 12.535384 28.105271 28.033021 28.105271 15.569886 0 28.105271-12.643759 28.105271-28.105271V424.974811c63.977422-13.00501 112.168207-69.576801 112.168207-137.455725V91.179567c0-15.497636-12.535384-28.033021-28.033021-28.033021-15.461511 0-28.105271 12.535384-28.10527 28.033021v196.339519h0.036125z"/>
</svg>
