<?xml version="1.0" standalone="no"?><!DOCTYPE svg PUBLIC "-//W3C//DTD SVG 1.1//EN"
        "http://www.w3.org/Graphics/SVG/1.1/DTD/svg11.dtd">
<svg class="icon" width="200px" height="200.00px" viewBox="0 0 1024 1024" version="1.1"
     xmlns="http://www.w3.org/2000/svg">
    <path fill="#333333"
          d="M593.49806 511.096874l232.103295 231.99492c11.018133 11.018133 11.018133 28.900021 0 39.95428s-28.900021 11.018133-39.95428 0l-249.876808-249.876808c-6.032879-6.069004-8.453256-14.16101-7.83913-22.072392-0.614125-7.911381 1.770126-16.003387 7.83913-22.144641l249.876808-249.804558c11.018133-11.054258 28.900021-11.054258 39.95428 0a28.148621 28.148621 0 0 1 0 39.845904l-232.103295 232.103295z m-338.852748 0l288.602836 288.494462c11.018133 11.018133 11.018133 28.900021 0 39.954279-11.018133 11.018133-29.008396 11.018133-39.954279 0l-306.484725-306.376349c-6.032879-6.069004-8.453256-14.16101-7.839131-22.072392-0.614125-7.911381 1.770126-16.003387 7.839131-22.144641l306.484725-306.304099c10.945883-11.018133 28.900021-11.018133 39.954279 0 11.018133 11.018133 11.018133 28.900021 0 39.954279l-288.602836 288.494461z"/>
</svg>
