<?xml version="1.0" standalone="no"?><!DOCTYPE svg PUBLIC "-//W3C//DTD SVG 1.1//EN"
        "http://www.w3.org/Graphics/SVG/1.1/DTD/svg11.dtd">
<svg class="icon" width="200px" height="200.00px" viewBox="0 0 1024 1024" version="1.1"
     xmlns="http://www.w3.org/2000/svg">
    <path fill="#333333"
          d="M832.46511 791.029704h-196.411769v112.276583h56.138291a28.033021 28.033021 0 0 1 28.033021 28.03302c0 15.461511-12.535384 28.105271-28.033021 28.105271H355.54251c-15.497636 0-28.033021-12.643759-28.03302-28.105271 0-15.497636 12.535384-28.033021 28.03302-28.03302h56.138292v-112.276583H187.199887c-61.990545 0-112.168207-50.177662-112.168207-112.204332V173.869752c0-61.990545 50.177662-112.168207 112.168207-112.168207h645.229098c61.918295 0 112.168207 50.177662 112.168207 112.168207v504.95562c0.036125 61.990545-50.213787 112.204332-112.132082 112.204332z m-252.47781 112.240458v-112.276583h-112.276582v112.276583h112.276582z m308.507726-729.40041c0-30.959148-25.070768-56.138291-56.029916-56.138291H187.199887c-30.959148 0-56.138291 25.179143-56.138291 56.138291v392.751288h757.43343V173.869752z m0 448.817329H131.061596v56.138291c0 30.959148 25.179143 56.138291 56.138291 56.138291h645.229098c30.959148 0 56.029916-25.179143 56.029916-56.138291v-56.138291h0.036125z"/>
</svg>
