<?xml version="1.0" standalone="no"?><!DOCTYPE svg PUBLIC "-//W3C//DTD SVG 1.1//EN"
        "http://www.w3.org/Graphics/SVG/1.1/DTD/svg11.dtd">
<svg class="icon" width="200px" height="200.00px" viewBox="0 0 1024 1024" version="1.1"
     xmlns="http://www.w3.org/2000/svg">
    <path fill="#333333"
          d="M736.408664 63.363296l-224.444789 168.306499-224.372539-84.135187-224.44479 140.309603v673.262118l224.44479-140.273478 224.372539 84.171312 224.444789-168.306498 224.44479 168.306498V231.70592l-224.44479-168.342624z m168.306499 743.453045l-168.306499-126.329218-224.444789 168.414874-224.372539-84.135187-168.306499 105.159952V308.832851l168.306499-105.159952 224.372539 84.171312 224.444789-168.306498 168.306499 126.220842v561.057786z"/>
    <path fill="#333333"
          d="M736.408664 315.841106c0-15.497636 12.535384-28.033021 28.105271-28.03302a28.033021 28.033021 0 0 1 28.03302 28.03302v224.44479c0 15.497636-12.535384 28.033021-28.03302 28.03302-15.569886 0-28.105271-12.535384-28.105271-28.03302V315.841106zM540.069146 652.490228c-15.497636 0-28.105271-12.535384-28.105271-28.033021v-168.306498c0-15.461511 12.643759-28.105271 28.105271-28.10527 15.497636 0 28.033021 12.643759 28.03302 28.10527v168.306498c0 15.497636-12.535384 28.033021-28.03302 28.033021zM315.624356 680.523248a28.033021 28.033021 0 0 1-28.03302-28.03302v-280.510831c0-15.461511 12.535384-28.105271 28.03302-28.10527 15.497636 0 28.033021 12.643759 28.033021 28.10527v280.510831a28.033021 28.033021 0 0 1-28.033021 28.03302z"/>
</svg>
