<?xml version="1.0" standalone="no"?><!DOCTYPE svg PUBLIC "-//W3C//DTD SVG 1.1//EN"
        "http://www.w3.org/Graphics/SVG/1.1/DTD/svg11.dtd">
<svg class="icon" width="200px" height="200.00px" viewBox="0 0 1024 1024" version="1.1"
     xmlns="http://www.w3.org/2000/svg">
    <path fill="#333333"
          d="M844.241868 279.065829h-259.59444l246.08368-169.281874c13.00501-8.995132 16.725887-27.418895 8.272632-41.290905-8.344881-13.79976-25.793269-17.701263-38.798279-8.814506 0 0-269.564947 186.188386-292.323714 199.879771L215.016157 59.678544c-13.00501-8.886757-30.345022-4.985254-38.798278 8.814506-8.453256 13.87201-4.696253 32.295774 8.272631 41.290905l246.08368 169.281874H170.97975c-61.918295 0-112.168207 50.177662-112.168207 112.168208v448.817328c0 61.990545 50.249912 112.276582 112.168207 112.276583H844.241868c61.990545 0 112.276582-50.249912 112.276583-112.276583V391.270162c0-62.02667-50.249912-112.204332-112.276583-112.204333z m56.138291 560.985536c0 31.031398-25.070768 56.138291-56.138291 56.138291H170.97975c-30.959148 0-56.138291-25.106893-56.138291-56.138291V391.270162c0-30.959148 25.179143-56.138291 56.138291-56.138292H844.241868c31.031398 0 56.138291 25.179143 56.138291 56.138292v448.781203z"/>
    <path fill="#333333"
          d="M816.244973 840.051365H704.076766c-15.569886 0-28.105271-12.535384-28.105271-28.03302 0-15.461511 12.535384-28.033021 28.105271-28.033021h112.168207c15.497636 0 28.033021 12.535384 28.03302 28.033021-0.036125 15.497636-12.571509 28.033021-28.03302 28.03302zM816.244973 755.916179H704.076766c-15.569886 0-28.105271-12.535384-28.105271-28.033021 0-15.461511 12.535384-28.033021 28.105271-28.03302h112.168207c15.497636 0 28.033021 12.535384 28.03302 28.03302-0.036125 15.497636-12.571509 28.033021-28.03302 28.033021zM760.106682 391.270162c-46.420659 0-84.171312 37.714528-84.171312 84.135186 0 46.529034 37.714528 84.171312 84.171312 84.171312 46.529034 0 84.171312-37.642278 84.171311-84.171312-0.036125-46.420659-37.642278-84.135187-84.171311-84.135186z m28.10527 112.168207h-56.138291v-56.029916h56.138291v56.029916zM563.767163 391.270162H227.118041c-30.959148 0-56.138291 25.070768-56.138291 56.138291v336.649121c0 30.959148 25.179143 56.029916 56.138291 56.029916h336.649122c30.959148 0 56.138291-25.106893 56.138291-56.029916v-336.649121c0-31.067523-25.179143-56.138291-56.138291-56.138291z m0 364.646017c0 15.569886-12.535384 28.105271-28.033021 28.10527H255.151062c-15.497636 0-28.033021-12.535384-28.033021-28.10527V475.405348c0-15.497636 12.535384-28.033021 28.033021-28.03302h280.58308a28.033021 28.033021 0 0 1 28.033021 28.03302v280.510831z"/>
</svg>
