<?xml version="1.0" standalone="no"?><!DOCTYPE svg PUBLIC "-//W3C//DTD SVG 1.1//EN"
        "http://www.w3.org/Graphics/SVG/1.1/DTD/svg11.dtd">
<svg class="icon" width="200px" height="200.00px" viewBox="0 0 1024 1024" version="1.1"
     xmlns="http://www.w3.org/2000/svg">
    <path fill="#333333"
          d="M712.674522 427.937063c-40.74903 0-77.126931-17.701263-102.739575-45.481408l-156.31299 89.301066c3.901503 12.824384 6.574755 26.262894 6.574755 40.315529 0 22.867142-5.960629 44.108657-15.642136 63.146546l150.171735 85.833063c24.998518-38.870528 68.312425-64.844422 117.948211-64.844422 77.488182 0 140.309603 62.785296 140.309603 140.273477s-62.821421 140.309603-140.309603 140.309603c-77.488182 0-140.201228-62.785296-140.201228-140.309603 0-5.165879 0.975376-10.151132 1.517251-15.136386l-169.932124-97.067946 0.614125-1.156001c-23.661892 18.062513-52.742539 29.189021-84.785437 29.189022-77.415932 0-140.201228-62.785296-140.201227-140.273478s62.821421-140.201228 140.201227-140.201228c40.82128 0 77.235307 17.629013 102.847951 45.373034l156.312989-89.228816c-3.901503-12.896634-6.574755-26.226769-6.574755-40.279404 0-77.488182 62.713046-140.309603 140.201228-140.309603 77.488182 0 140.309603 62.821421 140.309603 140.309603 0 77.452057-62.821421 140.237353-140.309603 140.237352z m0 392.787413c46.529034 0 84.171312-37.714528 84.171312-84.171312 0-46.529034-37.642278-84.171312-84.171312-84.171311-46.420659 0-84.171312 37.642278-84.171312 84.171311 0.036125 46.456784 37.750653 84.171312 84.171312 84.171312zM319.923234 427.937063c-46.456784 0-84.171312 37.714528-84.171311 84.171312 0 46.529034 37.714528 84.171312 84.171311 84.171312 46.529034 0 84.171312-37.642278 84.171312-84.171312-0.036125-46.456784-37.642278-84.171312-84.171312-84.171312z m392.751288-224.444789c-46.420659 0-84.171312 37.714528-84.171312 84.243562 0 46.420659 37.714528 84.171312 84.171312 84.171311 46.529034 0 84.171312-37.714528 84.171312-84.171311 0-46.529034-37.642278-84.243562-84.171312-84.243562z"/>
</svg>
