<?xml version="1.0" standalone="no"?><!DOCTYPE svg PUBLIC "-//W3C//DTD SVG 1.1//EN"
        "http://www.w3.org/Graphics/SVG/1.1/DTD/svg11.dtd">
<svg class="icon" width="200px" height="200.00px" viewBox="0 0 1024 1024" version="1.1"
     xmlns="http://www.w3.org/2000/svg">
    <path fill="#333333"
          d="M929.605306 369.161645h-28.033021l-56.138291 392.679038c0 61.990545-50.177662 112.276582-112.168207 112.276582H256.343188c-61.918295 0-112.168207-50.249912-112.168207-112.276582l-28.033021-392.679038h-28.105271c-15.497636 0-28.033021-12.643759-28.03302-28.10527a28.033021 28.033021 0 0 1 28.03302-28.033021h186.477387L214.257532 200.746772H144.138856c-15.497636 0-28.033021-12.535384-28.033021-28.033021a28.033021 28.033021 0 0 1 28.033021-28.03302h112.168207l88.867565 168.306498h329.604741l86.483314-168.306498h112.276582a28.033021 28.033021 0 0 1 28.03302 28.03302c0 15.497636-12.535384 28.033021-28.03302 28.033021h-70.190927l-56.824666 112.276582h183.081634c15.497636 0 28.105271 12.535384 28.10527 28.033021 0 15.461511-12.643759 28.105271-28.10527 28.10527z m-589.126932 0H172.171876l8.019756 112.168208h160.322867v-112.168208h-0.036125z m0 168.306499H184.20151l8.019756 112.168207h148.293233v-112.168207h-0.036125z m0 168.306498H196.195019l4.082128 56.029916c0 31.031398 25.070768 56.138291 56.029916 56.138291h84.171311v-112.168207z m336.649122 112.204332h56.138291c30.959148 0 56.138291-25.070768 56.138291-56.138291l8.019756-56.029916h-120.260213v112.168207h-0.036125z m0-168.342623h128.279969l16.003387-112.168207h-144.283356v112.168207z m-56.066041-280.474706h-224.44479v112.168208h224.44479v-112.168208z m0 168.306499h-224.44479v112.168207h224.44479v-112.168207z m0 168.306498h-224.44479v112.168207h224.44479v-112.168207z m56.066041-336.612997v112.168208h152.303111l16.003387-112.168208h-168.306498z"/>
</svg>
