<?xml version="1.0" standalone="no"?><!DOCTYPE svg PUBLIC "-//W3C//DTD SVG 1.1//EN"
        "http://www.w3.org/Graphics/SVG/1.1/DTD/svg11.dtd">
<svg class="icon" width="200px" height="200.00px" viewBox="0 0 1024 1024" version="1.1"
     xmlns="http://www.w3.org/2000/svg">
    <path fill="#333333"
          d="M289.144712 677.669371c-31.067523 0-56.138291-25.106893-56.138291-56.029916l645.229097-56.138291s84.171312-340.189374 84.171312-364.754392c0-15.497636-12.643759-28.033021-28.105271-28.033021H233.006421V116.683835h28.03302c15.497636 0 28.105271-12.643759 28.105271-28.10527s-12.643759-28.033021-28.105271-28.033021H92.732943c-15.497636 0-28.033021 12.535384-28.033021 28.033021 0 15.497636 12.535384 28.105271 28.033021 28.10527h84.171312v504.95562c0 61.918295 50.249912 112.168207 112.276582 112.168207h645.156847c0.903126 0 0-27.852395 0-56.138291H289.144712zM233.006421 228.852043h673.262118l-71.708178 286.90496L233.006421 565.501164V228.852043zM681.823749 733.807662c-61.918295 0-112.168207 50.249912-112.168207 112.168208 0 62.02667 50.249912 112.276582 112.168207 112.276582 61.990545 0 112.276582-50.249912 112.276583-112.276582 0-61.918295-50.286037-112.168207-112.276583-112.168208z m0 168.306499c-30.959148 0-56.066041-25.106893-56.066041-56.138291 0-30.959148 25.106893-56.029916 56.066041-56.029916 31.031398 0 56.138291 25.070768 56.138291 56.029916 0 31.067523-25.106893 56.138291-56.138291 56.138291zM345.174628 733.807662c-61.918295 0-112.168207 50.249912-112.168207 112.168208 0 62.02667 50.249912 112.276582 112.168207 112.276582 61.990545 0 112.276582-50.249912 112.276582-112.276582 0-61.918295-50.249912-112.168207-112.276582-112.168208z m0 168.306499c-30.959148 0-56.029916-25.106893-56.029916-56.138291 0-30.959148 25.070768-56.029916 56.029916-56.029916 31.031398 0 56.138291 25.070768 56.138291 56.029916 0 31.067523-25.070768 56.138291-56.138291 56.138291z"/>
</svg>
