<?xml version="1.0" standalone="no"?><!DOCTYPE svg PUBLIC "-//W3C//DTD SVG 1.1//EN"
        "http://www.w3.org/Graphics/SVG/1.1/DTD/svg11.dtd">
<svg class="icon" width="200px" height="200.00px" viewBox="0 0 1024 1024" version="1.1"
     xmlns="http://www.w3.org/2000/svg">
    <path fill="#333333"
          d="M595.810061 400.879419h-0.36125V92.263318c0-15.497636-12.643759-28.033021-28.10527-28.033021H455.175333a28.033021 28.033021 0 0 0-28.03302 28.033021v308.616101h-0.36125c-56.680167 0-83.810061 50.286037-83.810062 112.168207v448.889579h336.649122V513.047626c0-61.918295-28.683271-112.168207-83.810062-112.168207z m-112.637832-280.510831h56.138291v56.138291h-56.138291V120.368588z m0 112.168207h56.138291v168.306499h-56.138291V232.536795z m140.309603 673.262118h-224.44479V513.047626c0-30.959148 25.179143-56.029916 56.138291-56.029916h112.168208c31.031398 0 56.138291 25.106893 56.138291 56.029916v392.751287z"/>
</svg>
