<?xml version="1.0" standalone="no"?><!DOCTYPE svg PUBLIC "-//W3C//DTD SVG 1.1//EN"
        "http://www.w3.org/Graphics/SVG/1.1/DTD/svg11.dtd">
<svg class="icon" width="200px" height="200.00px" viewBox="0 0 1024 1024" version="1.1"
     xmlns="http://www.w3.org/2000/svg">
    <path fill="#333333"
          d="M897.87392 695.743465L555.926483 162.159523c-15.641585-21.963241-62.277349-23.841676-80.77271 0L133.278583 695.743465c-16.978163 31.680531-19.217836 67.87653 46.093908 67.87653h673.346739c66.178714-0.036124 63.939041-38.905281 45.15469-67.87653z m-696.429817 11.631848l314.096025-485.178114 314.204395 485.178114H201.444103zM150.906974 819.828553h729.374678c15.49709 0 28.032032 12.534942 28.032032 28.032032 0 15.569337-12.534942 28.104279-28.032032 28.104279H150.906974c-15.49709 0-28.032032-12.534942-28.032031-28.104279 0-15.49709 12.534942-28.032032 28.032031-28.032032z"/>
</svg>
