<?xml version="1.0" standalone="no"?><!DOCTYPE svg PUBLIC "-//W3C//DTD SVG 1.1//EN"
        "http://www.w3.org/Graphics/SVG/1.1/DTD/svg11.dtd">
<svg class="icon" width="200px" height="200.00px" viewBox="0 0 1024 1024" version="1.1"
     xmlns="http://www.w3.org/2000/svg">
    <path fill="#333333"
          d="M962.948705 315.841106c0 92.949693-75.17618 168.306498-167.945248 168.306499-6.68313 0-13.07726-1.047626-19.471389-1.950752-37.642278 110.036831-126.220842 209.236153-232.464545 224.37254v170.365624h83.990686c15.461511 0 27.924645 12.535384 27.924646 28.033021 0 15.497636-12.463134 28.105271-27.924646 28.10527h-224.011289c-15.461511 0-28.033021-12.643759-28.03302-28.10527a28.033021 28.033021 0 0 1 28.03302-28.033021h83.990687v-170.365624c-106.315953-15.136386-194.822268-114.299584-232.464546-224.37254-6.39413 0.903126-12.824384 1.950751-19.471389 1.950752-92.805193 0-168.053623-75.356805-168.053623-168.306499 0-112.276582-23.770267-112.204332 168.053623-112.204332 0-61.990545 50.069287-112.276582 111.915332-112.276582h335.998871c61.846045 0 111.987582 50.249912 111.987582 112.276582 191.787765 0.036125 167.945248-0.07225 167.945248 112.204332zM235.065547 259.702815c-110.831581 0-111.987582-5.780004-111.987582 56.138291 0 61.990545 50.105412 112.168207 111.987582 112.168207V259.702815z m503.980244-56.029916c0-28.647146-29.189021-56.138291-56.029916-56.138291H346.980879c-26.768645 0-55.957666 28.358146-55.957666 56.138291v168.306498c0 123.944966 100.246948 280.51083 224.011289 280.510831 123.655966 0 224.011289-156.565865 224.011289-280.510831V203.672899z m55.957666 56.029916v168.306498c61.846045 0 111.987582-50.177662 111.987582-112.168207 0-61.918295-1.156001-56.138291-111.987582-56.138291z"/>
</svg>
