<?xml version="1.0" standalone="no"?><!DOCTYPE svg PUBLIC "-//W3C//DTD SVG 1.1//EN"
        "http://www.w3.org/Graphics/SVG/1.1/DTD/svg11.dtd">
<svg class="icon" width="200px" height="200.00px" viewBox="0 0 1024 1024" version="1.1"
     xmlns="http://www.w3.org/2000/svg">
    <path fill="#333333"
          d="M739.443167 932.784308H178.385381V203.492274c0-61.990545 50.177662-112.276582 112.168207-112.276582h448.889579c61.918295 0 112.168207 50.286037 112.168207 112.276582v729.328159c-86.013688-0.036125-50.249912-0.036125-112.168207-0.036125zM290.553588 259.52219H234.415297v56.138291h56.138291V259.52219z m0 112.276582H234.415297v56.029916h56.138291v-56.029916z m0 112.168207H234.415297v56.138292h56.138291v-56.138292z m0 112.204333H234.415297v56.138291h56.138291v-56.138291z m0 112.276582H234.415297v56.066041h56.138291v-56.066041z m0 112.168207H234.415297v56.138291h56.138291v-56.138291zM683.304875 175.387003c0-15.461511-12.535384-28.033021-28.10527-28.03302h-280.510831c-15.497636 0-28.033021 12.535384-28.03302 28.03302v280.583081c0 15.497636 12.535384 28.033021 28.03302 28.03302h280.510831c15.569886 0 28.105271-12.535384 28.10527-28.03302V175.387003z m0 392.751288c0-15.461511-12.535384-28.033021-28.10527-28.03302h-280.510831c-15.497636 0-28.033021 12.535384-28.03302 28.03302v280.510831c0 15.569886 12.535384 28.105271 28.03302 28.10527h280.510831c15.569886 0 28.105271-12.535384 28.10527-28.10527v-280.510831z m112.168208-308.616101h-56.066041v56.138291h56.066041V259.52219z m0 112.276582h-56.066041v56.029916h56.066041v-56.029916z m0 112.168207h-56.066041v56.138292h56.066041v-56.138292z m0 112.204333h-56.066041v56.138291h56.066041v-56.138291z m0 112.276582h-56.066041v56.066041h56.066041v-56.066041z m0 112.168207h-56.066041v56.138291h56.066041v-56.138291z"/>
</svg>
