<?xml version="1.0" standalone="no"?><!DOCTYPE svg PUBLIC "-//W3C//DTD SVG 1.1//EN"
        "http://www.w3.org/Graphics/SVG/1.1/DTD/svg11.dtd">
<svg class="icon" width="200px" height="200.00px" viewBox="0 0 1024 1024" version="1.1"
     xmlns="http://www.w3.org/2000/svg">
    <path fill="#333333"
          d="M868.228886 169.606999l-326.859239 427.648063v252.55006h112.168207c15.497636 0 28.033021 12.535384 28.03302 28.033021 0 15.497636-12.535384 28.033021-28.03302 28.03302h-280.510831c-15.569886 0-28.105271-12.535384-28.10527-28.03302 0-15.461511 12.535384-28.033021 28.10527-28.033021h112.168207v-252.55006L128.388344 168.270373c-10.945883-11.018133-10.945883-28.900021 0-39.954279 5.960629-5.960629 13.87201-8.453256 21.711141-7.911381H847.493121c4.371128-0.252875 8.633881 0.180625 12.716009 1.950752 10.331758 3.901503 17.773513 13.980385 17.773513 26.082269 0 8.525506-3.901503 16.003387-9.753757 21.169265zM207.321527 176.543004l305.942849 364.646017 280.14958-364.646017H207.321527z"/>
</svg>
