<?xml version="1.0" standalone="no"?><!DOCTYPE svg PUBLIC "-//W3C//DTD SVG 1.1//EN"
        "http://www.w3.org/Graphics/SVG/1.1/DTD/svg11.dtd">
<svg class="icon" width="200px" height="200.00px" viewBox="0 0 1024 1024" version="1.1"
     xmlns="http://www.w3.org/2000/svg">
    <path fill="#333333"
          d="M827.732731 533.169266L520.922882 839.545615c-11.126508 11.018133-29.008396 11.018133-40.02653 0-11.018133-11.018133-11.018133-28.900021 0-39.954279l288.964087-288.494462-288.964087-288.494461c-11.018133-11.018133-11.018133-28.900021 0-39.954279 11.018133-11.018133 28.900021-11.018133 40.02653 0l306.845974 306.304099c6.032879 6.141254 8.453256 14.23326 7.839131 22.144641 0.578 7.911381-1.806251 16.003387-7.875256 22.072392z m-331.555493-22.072392c0.614125 7.911381-1.770126 16.003387-7.83913 22.072392l-250.346434 249.876808c-11.018133 11.018133-28.900021 11.018133-39.954279 0-11.018133-11.018133-11.018133-28.900021 0-39.95428l232.35617-231.99492-232.320045-232.103295a28.148621 28.148621 0 0 1 0-39.845904c11.018133-11.054258 28.900021-11.054258 39.954279 0l250.346434 249.804558c6.032879 6.141254 8.417131 14.23326 7.803005 22.144641z"/>
</svg>
