<?xml version="1.0" standalone="no"?><!DOCTYPE svg PUBLIC "-//W3C//DTD SVG 1.1//EN"
        "http://www.w3.org/Graphics/SVG/1.1/DTD/svg11.dtd">
<svg class="icon" width="200px" height="200.00px" viewBox="0 0 1024 1024" version="1.1"
     xmlns="http://www.w3.org/2000/svg">
    <path fill="#333333"
          d="M904.787413 398.206167v448.817328c0 61.990545-50.249912 112.168207-112.276583 112.168208H231.525295c-61.990545 0-112.276582-50.177662-112.276583-112.168208V398.206167c-30.959148 0-56.029916-25.179143-56.029916-56.138291V285.965709c0-30.959148 25.070768-56.138291 56.029916-56.138291h211.981656c-9.681507-16.545262-15.569886-35.474776-15.569887-56.029916 0-62.02667 50.177662-112.276582 112.168207-112.276582 33.70465 0 63.616172 15.208636 84.171312 38.689903 20.55514-23.481267 50.430537-38.689903 84.171312-38.689903 61.990545 0 112.168207 50.249912 112.168207 112.276582 0 20.55514-5.888379 39.484654-15.569887 56.029916h211.981656c30.959148 0 56.029916 25.179143 56.029916 56.138291V342.104001c0.036125 30.923023-25.034643 56.102166-55.993791 56.102166z m-112.276583 504.955619c31.031398 0 56.138291-25.179143 56.138292-56.138291v-168.306498h-308.616101v224.444789h252.477809z m-252.477809-280.58308h308.616101v-224.372539h-308.616101v224.372539zM175.387003 847.023495c0 30.959148 25.070768 56.138291 56.138292 56.138291h252.477809v-224.444789H175.387003v168.306498z m0-224.444789h308.616101v-224.372539H175.387003v224.372539z m252.47781-504.95562c-30.959148 0-56.138291 25.070768-56.138291 56.138291 0 30.959148 25.179143 56.029916 56.138291 56.029916s56.138291-25.070768 56.138291-56.029916c0-31.031398-25.179143-56.138291-56.138291-56.138291z m168.306499 0c-30.959148 0-56.138291 25.070768-56.138291 56.138291 0 30.959148 25.179143 56.029916 56.138291 56.029916s56.138291-25.070768 56.138291-56.029916c0-31.031398-25.179143-56.138291-56.138291-56.138291z m280.51083 168.342623H147.353983c-15.461511 0-28.105271 12.535384-28.105271 28.033021 0 15.569886 12.643759 28.105271 28.105271 28.105271h729.328159c15.569886 0 28.105271-12.535384 28.105271-28.105271 0-15.497636-12.571509-28.033021-28.105271-28.033021z"/>
</svg>
