<?xml version="1.0" standalone="no"?><!DOCTYPE svg PUBLIC "-//W3C//DTD SVG 1.1//EN"
        "http://www.w3.org/Graphics/SVG/1.1/DTD/svg11.dtd">
<svg class="icon" width="200px" height="200.00px" viewBox="0 0 1024 1024" version="1.1"
     xmlns="http://www.w3.org/2000/svg">
    <path fill="#333333"
          d="M849.407747 820.616101H176.145629c-61.990545 0-112.276582-50.249912-112.276582-112.276582V315.660481c0-61.990545 50.249912-112.276582 112.276582-112.276582h673.262118c61.918295 0 112.168207 50.249912 112.168207 112.276582v392.679038c0 62.02667-50.249912 112.276582-112.168207 112.276582z m56.138291-504.95562c0-31.031398-25.179143-56.138291-56.138291-56.138291H176.145629c-31.031398 0-56.138291 25.070768-56.138291 56.138291v392.679038c0 31.031398 25.070768 56.138291 56.138291 56.138291h673.262118c30.959148 0 56.138291-25.070768 56.138291-56.138291V315.660481z m-84.171311 336.649122c-15.569886 0-28.105271-12.535384-28.105271-28.105271 0-15.461511 12.535384-28.033021 28.105271-28.03302 15.497636 0 28.033021 12.535384 28.03302 28.03302 0 15.533761-12.535384 28.105271-28.03302 28.105271z m0-112.276582c-15.569886 0-28.105271-12.535384-28.105271-28.033021 0-15.497636 12.535384-28.033021 28.105271-28.033021 15.497636 0 28.033021 12.535384 28.03302 28.033021a28.033021 28.033021 0 0 1-28.03302 28.033021z m-112.276583 168.306498H316.346857c-15.497636 0-28.033021-12.535384-28.033021-28.033021V343.693502a28.033021 28.033021 0 0 1 28.033021-28.033021h392.751287c15.497636 0 28.105271 12.535384 28.105271 28.033021v336.649121c0.036125 15.461511-12.607634 27.996896-28.105271 27.996896z m-27.996895-308.507726c0-15.461511-12.535384-28.105271-28.033021-28.105271h-280.58308c-15.497636 0-28.033021 12.643759-28.033021 28.105271v224.372539c0 15.569886 12.535384 28.105271 28.033021 28.105271h280.58308c15.461511 0 28.033021-12.535384 28.033021-28.105271v-224.372539zM204.17865 652.309603c-15.461511 0-28.033021-12.535384-28.033021-28.105271a28.033021 28.033021 0 0 1 28.033021-28.03302c15.497636 0 28.033021 12.535384 28.03302 28.03302-0.036125 15.533761-12.571509 28.105271-28.03302 28.105271z m0-112.276582a28.033021 28.033021 0 0 1-28.033021-28.033021c0-15.497636 12.535384-28.033021 28.033021-28.033021 15.497636 0 28.033021 12.535384 28.03302 28.033021-0.036125 15.461511-12.571509 28.033021-28.03302 28.033021z"/>
</svg>
