<?xml version="1.0" standalone="no"?><!DOCTYPE svg PUBLIC "-//W3C//DTD SVG 1.1//EN"
        "http://www.w3.org/Graphics/SVG/1.1/DTD/svg11.dtd">
<svg class="icon" width="200px" height="200.00px" viewBox="0 0 1024 1024" version="1.1"
     xmlns="http://www.w3.org/2000/svg">
    <path fill="#333333"
          d="M769.643689 428.659564h-1.408876c-19.760389 35.583151-48.479786 66.470049-83.521062 90.023566l-55.34354 386.899033c0 30.959148-25.070768 56.138291-56.029916 56.138291h-112.276582c-30.959148 0-56.029916-25.179143-56.029916-56.138291L349.690256 518.68313c-35.041276-23.589642-63.796797-54.440415-83.521061-90.023566h-1.408876c-30.959148 0-56.138291-25.070768-56.138291-56.029916V316.491357c0-23.120017 13.980385-42.880406 33.99365-51.514288 26.407394-114.769209 139.334227-200.963522 274.622451-200.963522 135.324349 0 248.215057 86.194313 274.622451 200.963522 19.941015 8.633881 33.99365 28.358146 33.99365 51.514288v56.138291c-0.07225 30.923023-25.251393 56.029916-56.210541 56.029916z m-308.616101 420.784308c7.911381 28.285896 7.369505 56.138291 28.10527 56.138291h56.029916c20.62739 0 21.964016-26.94927 28.105271-56.138291l53.465039-300.524095c-33.70465 12.896634-70.732802 20.013265-109.60333 20.013265-38.870528 0-75.970931-7.11663-109.603331-20.013265l53.501165 300.524095z m56.138291-336.612996c76.223806 0 143.488605-33.271149 184.05701-84.171312H333.108869c40.568405 50.900162 107.797079 84.171312 184.05701 84.171312z m0-392.679038c-101.691949 0-187.452762 59.172793-215.016158 140.201228h430.032315c-27.67177-81.064559-113.324208-140.201228-215.016157-140.201228z m224.444789 196.339519H292.721089c-15.497636 0-28.033021 12.535384-28.03302 28.03302 0 15.569886 12.535384 28.105271 28.03302 28.105271h448.889579c15.497636 0 28.033021-12.535384 28.033021-28.105271 0-15.497636-12.535384-28.033021-28.033021-28.03302z"/>
</svg>
