<?xml version="1.0" standalone="no"?><!DOCTYPE svg PUBLIC "-//W3C//DTD SVG 1.1//EN"
        "http://www.w3.org/Graphics/SVG/1.1/DTD/svg11.dtd">
<svg class="icon" width="200px" height="200.00px" viewBox="0 0 1024 1024" version="1.1"
     xmlns="http://www.w3.org/2000/svg">
    <path fill="#333333"
          d="M851.575249 231.525295h-84.171312l-28.03302-56.138292c-16.545262-32.657024-25.179143-56.138291-56.138292-56.138291H346.619629c-30.959148 0-41.18253 26.768645-56.138291 56.138291l-28.033021 56.138292h-84.171311C116.322585 231.525295 66.144923 281.775206 66.144923 343.693502v448.817328c0 61.990545 50.177662 112.276582 112.168208 112.276583h673.262118c61.990545 0 112.276582-50.249912 112.276582-112.276583V343.693502c0-61.918295-50.249912-112.168207-112.276582-112.168207z m56.138291 560.985535c0 31.031398-25.179143 56.138291-56.138291 56.138292H178.313131c-30.959148 0-56.138291-25.070768-56.138292-56.138292V343.693502c0-30.959148 25.179143-56.138291 56.138292-56.138291h112.168207l28.10527-56.029916c19.83264-32.657024 25.106893-56.138291 56.029916-56.138292h280.583081c30.959148 0 36.305652 23.481267 56.029916 56.138292l28.105271 56.029916h112.168207c30.959148 0 56.138291 25.179143 56.138291 56.138291v448.817328z"/>
    <path fill="#333333"
          d="M514.962252 343.693502c-123.908841 0-224.444789 100.535949-224.444789 224.444789 0 123.908841 100.535949 224.372539 224.444789 224.372539 123.908841 0 224.444789-100.463699 224.44479-224.372539s-100.535949-224.444789-224.44479-224.444789z m0 392.751287c-92.949693 0-168.306498-75.356805-168.306498-168.306498s75.356805-168.306498 168.306498-168.306498c92.949693 0 168.306498 75.356805 168.306498 168.306498s-75.356805 168.306498-168.306498 168.306498z"/>
</svg>
