<?xml version="1.0" standalone="no"?><!DOCTYPE svg PUBLIC "-//W3C//DTD SVG 1.1//EN"
        "http://www.w3.org/Graphics/SVG/1.1/DTD/svg11.dtd">
<svg class="icon" width="200px" height="200.00px" viewBox="0 0 1024 1024" version="1.1"
     xmlns="http://www.w3.org/2000/svg">
    <path fill="#333333"
          d="M722.464404 960.853454H301.643971c-61.990545 0-112.276582-50.249912-112.276582-112.276582V175.350878c0-61.990545 50.249912-112.168207 112.276582-112.168207h420.784308c61.918295 0 112.168207 50.177662 112.168207 112.168207v673.262119c0.036125 61.990545-50.213787 112.240457-112.132082 112.240457zM778.49432 175.350878c0-30.959148-25.106893-56.138291-56.029916-56.138291H301.643971c-31.031398 0-56.138291 25.179143-56.138291 56.138291v28.033021H778.49432v-28.033021z m0 84.135187H245.541805v448.817329H778.49432V259.486065z m0 504.95562H245.541805v84.171312c0 30.959148 25.070768 56.138291 56.138291 56.138291h420.784308c30.959148 0 56.029916-25.179143 56.029916-56.138291v-84.171312z m-266.42207 112.276582c-23.300642 0-42.085656-18.857264-42.085656-42.157906 0-23.228392 18.785014-42.085656 42.085656-42.085656 23.228392 0 42.085656 18.857264 42.085656 42.085656-0.036125 23.300642-18.893389 42.157906-42.085656 42.157906z"/>
</svg>
