<?xml version="1.0" standalone="no"?><!DOCTYPE svg PUBLIC "-//W3C//DTD SVG 1.1//EN"
        "http://www.w3.org/Graphics/SVG/1.1/DTD/svg11.dtd">
<svg t="1644722878512" class="icon" viewBox="0 0 1024 1024" version="1.1" xmlns="http://www.w3.org/2000/svg" p-id="4140"
     xmlns:xlink="http://www.w3.org/1999/xlink" width="200" height="200">
    <defs>
        <style type="text/css"></style>
    </defs>
    <path d="M708.399997 36.252911h-148.350837c-120.827654 0-167.286921 100.284897-169.032028 167.689638-0.012585 0.453057-0.01678 0.906113-0.01678 1.359169v342.141564c-35.778879-23.319825-78.366191-36.924105-124.074559-36.924106C140.678241 510.519176 37.968652 613.89996 37.968652 740.965531s102.709589 230.446354 228.957141 230.446354c125.861615 0 228.302726-102.755733 228.927776-229.284348 0-0.125849 0.01678-0.251698 0.01678-0.377547v-0.377547l0.00839-0.406912-0.00839-0.406912V206.39241c0.171994-2.332402 1.715742-19.452065 9.929489-35.464257 10.571319-20.609876 27.30085-29.80105 54.245127-29.80105h148.350837c28.957862 0 52.437096-23.475039 52.437096-52.437096 0.004195-28.957862-23.470844-52.437096-52.432901-52.437096zM266.925793 866.537693c-68.419923 0-124.082949-56.330026-124.082949-125.572162s55.663026-125.572162 124.082949-125.572163c68.285684 0 123.852226 56.107693 124.074559 125.161056v0.818019c-0.218138 69.057558-55.788875 125.165251-124.074559 125.16525z"
          p-id="4141"></path>
    <path d="M918.911865 544.406125h-305.133559c-28.957862 0-52.437096-23.479234-52.437096-52.437096 0-28.962057 23.479234-52.437096 52.437096-52.437096H918.911865c28.957862 0 52.437096 23.475039 52.437096 52.437096 0 28.957862-23.479234 52.437096-52.437096 52.437096zM918.911865 743.339883h-305.133559c-28.957862 0-52.437096-23.479234-52.437096-52.437096s23.479234-52.437096 52.437096-52.437096H918.911865c28.957862 0 52.437096 23.479234 52.437096 52.437096s-23.479234 52.437096-52.437096 52.437096zM918.911865 940.117426h-305.133559c-28.957862 0-52.437096-23.479234-52.437096-52.437096s23.479234-52.437096 52.437096-52.437096H918.911865c28.957862 0 52.437096 23.479234 52.437096 52.437096s-23.479234 52.437096-52.437096 52.437096z"
          p-id="4142"></path>
</svg>