<?xml version="1.0" standalone="no"?><!DOCTYPE svg PUBLIC "-//W3C//DTD SVG 1.1//EN"
        "http://www.w3.org/Graphics/SVG/1.1/DTD/svg11.dtd">
<svg class="icon" width="200px" height="200.00px" viewBox="0 0 1024 1024" version="1.1"
     xmlns="http://www.w3.org/2000/svg">
    <path fill="#333333"
          d="M819.4601 413.559303v430.935441c0 63.435546-49.997037 114.841459-111.554082 114.841459H317.358357c-61.66542 0-111.554082-51.405913-111.554081-114.841459V384.839907h0.36125c-0.4335-19.941015-0.794751-30.417272 13.691385-45.300783l254.970437-262.701193c20.12164-20.62739 52.742539-20.62739 72.864178 0l255.042687 262.701193c20.085515 20.663515 16.725887 40.74903 16.725887 74.020179z m-52.598038-15.280886c0-20.19389-8.706131-29.622522-18.785014-40.02653l-218.664785-225.058914a25.222493 25.222493 0 0 0-36.377902 0l-218.592535 225.058914c-10.042757 10.404008-12.643759 21.602766-12.643759 40.02653l-0.252875 446.252452c0 31.681648 25.612644 58.811543 56.391166 58.811543h392.751288c30.778523 0 56.138291-24.384393 56.138291-56.138291V398.278417h0.036125zM512.614125 528.509137c-61.66542 0-111.554082-51.514288-111.554081-114.949834 0-63.435546 49.924787-114.949834 111.554081-114.949834 61.66542 0 111.554082 51.514288 111.554082 114.949834 0 63.435546-49.888662 114.949834-111.554082 114.949834z m0-172.424751c-30.778523 0-55.777041 25.721019-55.77704 57.474917s24.998518 57.474917 55.77704 57.474917 55.777041-25.721019 55.777041-57.474917-24.998518-57.474917-55.777041-57.474917z"/>
</svg>
