<?xml version="1.0" standalone="no"?><!DOCTYPE svg PUBLIC "-//W3C//DTD SVG 1.1//EN"
        "http://www.w3.org/Graphics/SVG/1.1/DTD/svg11.dtd">
<svg class="icon" width="200px" height="200.00px" viewBox="0 0 1024 1024" version="1.1"
     xmlns="http://www.w3.org/2000/svg">
    <path fill="#333333"
          d="M624.637832 960.058703l-112.168207-84.171311-112.168207 84.171311-112.276582-84.171311-115.92521 84.171311h-52.381288V174.628378c0-62.02667 50.249912-112.276582 112.276582-112.276582H792.944331c61.990545 0 112.276582 50.249912 112.276582 112.276582v785.430325h-52.417413l-115.92521-84.171311-112.240458 84.171311z m224.44479-785.430325c0-31.031398-25.070768-56.138291-56.138291-56.138291H231.958795c-31.067523 0-56.138291 25.070768-56.138291 56.138291v730.98991l112.168207-85.760813 112.276582 89.409441 112.168207-89.409441 112.168207 89.409441 112.276583-89.409441 112.168207 84.857688V174.628378h0.036125z m-140.273478 448.817329H316.130107c-15.569886 0-28.105271-12.535384-28.105271-28.033021 0-15.461511 12.535384-28.105271 28.105271-28.10527h392.679037c15.461511 0 28.105271 12.643759 28.105271 28.10527 0 15.497636-12.643759 28.033021-28.105271 28.033021z m0-168.956749H316.130107c-15.569886 0-28.105271-12.535384-28.105271-28.033021 0-15.569886 12.535384-28.105271 28.105271-28.10527h392.679037c15.461511 0 28.105271 12.535384 28.105271 28.10527 0 15.497636-12.643759 28.033021-28.105271 28.033021z m0-167.692373H316.130107c-15.569886 0-28.105271-12.535384-28.105271-28.03302 0-15.497636 12.535384-28.105271 28.105271-28.105271h392.679037c15.461511 0 28.105271 12.643759 28.105271 28.105271 0 15.497636-12.643759 28.033021-28.105271 28.03302z"/>
</svg>
