<?xml version="1.0" standalone="no"?><!DOCTYPE svg PUBLIC "-//W3C//DTD SVG 1.1//EN"
        "http://www.w3.org/Graphics/SVG/1.1/DTD/svg11.dtd">
<svg class="icon" width="200px" height="200.00px" viewBox="0 0 1024 1024" version="1.1"
     xmlns="http://www.w3.org/2000/svg">
    <path fill="#333333"
          d="M851.141748 959.227828H177.80738c-61.918295 0-112.168207-50.249912-112.168207-112.168208V173.761377c0-62.02667 50.249912-112.276582 112.168207-112.276582h673.370493c61.918295 0 112.168207 50.249912 112.168208 112.276582v673.262118c0 61.918295-50.286037 112.204332-112.204333 112.204333zM907.207789 173.761377c0-31.031398-25.070768-56.138291-56.029916-56.138291H177.80738c-30.959148 0-56.029916 25.070768-56.029916 56.138291v673.262118c0 30.959148 25.070768 56.029916 56.029916 56.029916h673.370493c30.959148 0 56.029916-25.070768 56.029916-56.029916V173.761377z m-140.309602 56.066041H261.942567c-15.497636 0-28.033021-12.535384-28.033021-28.03302a28.033021 28.033021 0 0 1 28.033021-28.033021h504.95562c15.569886 0 28.105271 12.535384 28.10527 28.033021 0 15.461511-12.535384 28.033021-28.10527 28.03302z m-273.285825 64.916673c5.888379-5.852254 13.619135-8.344881 21.27764-8.019756 7.730756-0.36125 15.497636 2.131377 21.349891 8.019756l138.683976 167.764623c10.945883 11.018133 10.945883 28.900021 0 39.954279a28.148621 28.148621 0 0 1-39.845904 0l-92.516193-111.987582v428.442814c0 15.569886-12.535384 28.105271-28.10527 28.10527-15.497636 0-28.033021-12.535384-28.033021-28.10527v-427.359063l-91.613067 110.939956a28.148621 28.148621 0 0 1-39.845904 0c-10.945883-11.018133-10.945883-28.900021 0-39.954279l138.647852-167.800748z"/>
</svg>
