<?xml version="1.0" standalone="no"?><!DOCTYPE svg PUBLIC "-//W3C//DTD SVG 1.1//EN"
        "http://www.w3.org/Graphics/SVG/1.1/DTD/svg11.dtd">
<svg class="icon" width="200px" height="200.00px" viewBox="0 0 1024 1024" version="1.1"
     xmlns="http://www.w3.org/2000/svg">
    <path fill="#333333"
          d="M900.344034 872.636139H114.913709a28.033021 28.033021 0 0 1-28.03302-28.03302v-224.44479c0-15.497636 12.535384-28.033021 28.03302-28.03302a28.033021 28.033021 0 0 1 28.033021 28.03302v196.411769h729.400409v-196.411769c0-15.497636 12.535384-28.033021 28.03302-28.03302s28.105271 12.535384 28.105271 28.03302v224.44479a28.083596 28.083596 0 0 1-28.141396 28.03302zM628.21421 359.335638l-92.516193-112.168207v401.023919c0 15.569886-12.535384 28.105271-28.03302 28.10527-15.569886 0-28.105271-12.535384-28.105271-28.10527V248.251182l-91.613067 111.120581a28.148621 28.148621 0 0 1-39.845904 0c-10.945883-11.018133-10.945883-29.008396 0-40.026529l138.683977-168.053623c5.852254-5.888379 13.619135-8.453256 21.34989-8.019756 7.658506-0.4335 15.389261 2.131377 21.277641 8.019756l138.683976 168.053623c10.945883 11.018133 10.945883 29.008396 0 40.026529a28.159458 28.159458 0 0 1-39.882029-0.036125z"/>
</svg>
