<?xml version="1.0" standalone="no"?><!DOCTYPE svg PUBLIC "-//W3C//DTD SVG 1.1//EN"
        "http://www.w3.org/Graphics/SVG/1.1/DTD/svg11.dtd">
<svg class="icon" width="200px" height="200.00px" viewBox="0 0 1024 1024" version="1.1"
     xmlns="http://www.w3.org/2000/svg">
    <path fill="#333333"
          d="M821.085726 960.347703H203.853524c-61.918295 0-112.168207-50.177662-112.168207-112.168207V174.917378c0-61.990545 50.249912-112.168207 112.168207-112.168207h617.232202c61.918295 0 112.168207 50.177662 112.168208 112.168207v673.262118c0 61.990545-50.249912 112.168207-112.168208 112.168207zM877.115642 174.917378c0-30.959148-25.070768-56.138291-56.029916-56.138291H203.853524c-30.959148 0-56.029916 25.179143-56.029916 56.138291v56.138291H877.115642V174.917378z m0 112.168207H147.823608v561.093911c0 30.959148 25.070768 56.138291 56.029916 56.138291h617.232202c30.959148 0 56.029916-25.179143 56.029916-56.138291V287.085585z m-244.096803 300.704721l-92.516193-111.987583v344.379878a28.033021 28.033021 0 0 1-28.033021 28.03302c-15.497636 0-28.033021-12.535384-28.03302-28.03302V476.850349l-91.721442 110.939957a27.996896 27.996896 0 0 1-39.773654 0c-11.018133-11.018133-11.018133-28.900021 0-39.95428l138.611726-167.764623c5.888379-5.852254 13.691385-8.344881 21.349891-8.019756 7.658506-0.36125 15.497636 2.131377 21.34989 8.019756l138.611727 167.764623c11.018133 11.018133 11.018133 28.900021 0 39.95428a28.148621 28.148621 0 0 1-39.845904 0z"/>
</svg>
