<?xml version="1.0" standalone="no"?><!DOCTYPE svg PUBLIC "-//W3C//DTD SVG 1.1//EN"
        "http://www.w3.org/Graphics/SVG/1.1/DTD/svg11.dtd">
<svg class="icon" width="200px" height="200.00px" viewBox="0 0 1024 1024" version="1.1"
     xmlns="http://www.w3.org/2000/svg">
    <path fill="#333333"
          d="M960.130953 341.02025L796.195583 60.545544H225.492415L62.424046 341.02025v112.276582c0 29.875397 10.765258 62.460171 28.10527 84.171312l0.794751 308.507726c0 62.02667 51.875538 112.276582 115.744585 112.276582h607.51457c63.869047 0 117.514711-50.249912 117.514711-112.276582v-308.507726c19.579764-23.120017 28.033021-46.890284 28.03302-84.171312V341.02025z m-84.135186 504.95562c0 30.959148-29.441897 56.138291-61.37642 56.138291H207.068652c-31.934523 0-60.401044-25.179143-60.401045-56.138291v-56.029916h729.292035v56.029916z m0-112.168208H146.667607l-0.07225-168.306498h55.162916c30.056022 0 77.849432-26.87702 98.043322-67.951175 22.686517 39.954279 65.133423 67.951175 105.521202 67.951175 42.772031 0 89.842941-25.432019 105.521202-62.17117 15.750512 35.836026 61.846045 62.171171 103.642701 62.17117 41.54378 0 84.532562-30.525647 106.315953-72.250053 25.432019 42.085656 45.987159 72.250053 99.090948 72.250053 8.272631 0 48.913286 1.336626 56.138291 0v168.306498z m27.996895-280.51083c-0.36125 38.689903-45.011783 56.029916-84.171312 56.029916-45.120158 0-85.652438-27.31052-85.652437-56.029916h-26.51577c0 28.285896-50.249912 56.029916-93.491568 56.029916-41.47153 0-89.770691-28.647146-89.770691-56.029916h-27.129895c0 28.285896-49.093911 56.029916-90.637691 56.029916-43.241657 0-92.624568-19.941015-92.624568-56.029916h-26.515769c0 28.213646-43.313907 56.933042-84.966063 56.933042-42.157906 0-83.990687-18.243138-83.990686-56.933042v-56.138291h785.430325v56.138291zM119.609963 341.02025l130.772595-224.37254h520.959007l133.445848 224.37254H119.609963z"/>
</svg>
