<?xml version="1.0" standalone="no"?><!DOCTYPE svg PUBLIC "-//W3C//DTD SVG 1.1//EN"
        "http://www.w3.org/Graphics/SVG/1.1/DTD/svg11.dtd">
<svg class="icon" width="200px" height="200.00px" viewBox="0 0 1024 1024" version="1.1"
     xmlns="http://www.w3.org/2000/svg">
    <path fill="#333333"
          d="M933.001058 761.985183H91.396317c-15.461511 0-28.033021-12.643759-28.033021-28.10527v-28.033021c0-238.425175 186.007761-434.331193 420.784309-448.889579-0.180625 2.312002 0-56.066041 0-56.066041h-56.138292c-15.497636 0-28.033021-12.535384-28.03302-28.03302 0-15.569886 12.535384-28.105271 28.03302-28.105271h168.306499c15.497636 0 28.105271 12.535384 28.10527 28.105271 0 15.497636-12.643759 28.033021-28.10527 28.03302h-56.029916v56.066041c234.668172 14.594511 420.784308 210.500529 420.784308 448.889579v28.033021c0.036125 15.497636-12.607634 28.105271-28.069146 28.10527zM512.21675 313.095604c-216.894659 0-392.679038 175.892754-392.679037 392.751288h785.430325c0-216.858534-175.892754-392.751288-392.751288-392.751288zM91.396317 818.051224h841.568616c15.461511 0 28.105271 12.535384 28.105271 28.105271 0 15.497636-12.643759 28.033021-28.105271 28.03302H91.396317a28.033021 28.033021 0 0 1-28.033021-28.03302c0.036125-15.569886 12.571509-28.105271 28.033021-28.105271z"/>
</svg>
