<?xml version="1.0" standalone="no"?><!DOCTYPE svg PUBLIC "-//W3C//DTD SVG 1.1//EN"
        "http://www.w3.org/Graphics/SVG/1.1/DTD/svg11.dtd">
<svg class="icon" width="200px" height="200.00px" viewBox="0 0 1024 1024" version="1.1"
     xmlns="http://www.w3.org/2000/svg">
    <path fill="#333333"
          d="M877.007267 458.679461L259.775065 514.817752c-30.959148 0-56.066041-25.179143-56.066041-56.138291V150.099485c0-30.959148 25.106893-56.029916 56.066041-56.029916l617.232202 56.029916c30.959148 0 56.029916 25.179143 56.029916 56.138291v196.447894c0 30.923023-25.070768 55.993791-56.029916 55.993791zM484.219855 169.751499l-196.339519-19.652014c-26.262894 0-28.105271 5.346504-28.105271 28.105271v252.477809c0 22.686517 1.878501 28.033021 28.105271 28.033021l196.339519-19.652014V169.751499z m56.138291 263.676568l168.306498-16.798137V192.149016l-168.306498-16.798138v258.077189z m336.649121-201.071897c0-22.686517-1.878501-26.154519-28.10527-26.154519l-84.171312-8.344881v213.137656l84.171312-8.344881c26.262894 0 28.105271-3.468003 28.10527-26.262894V232.35617zM119.573838 935.60206c-15.569886 0-28.105271-12.535384-28.105271-28.03302V122.066464c0-15.461511 12.535384-28.033021 28.105271-28.03302 15.497636 0 28.033021 12.535384 28.03302 28.03302v785.538701c0 15.461511-12.571509 27.996896-28.03302 27.996895z"/>
</svg>
