<?xml version="1.0" standalone="no"?><!DOCTYPE svg PUBLIC "-//W3C//DTD SVG 1.1//EN"
        "http://www.w3.org/Graphics/SVG/1.1/DTD/svg11.dtd">
<svg class="icon" width="200px" height="200.00px" viewBox="0 0 1024 1024" version="1.1"
     xmlns="http://www.w3.org/2000/svg">
    <path fill="#333333"
          d="M652.309603 960.853454h-280.510831c-62.02667 0-112.168207-50.249912-112.168207-112.276582V175.350878c0-61.990545 50.177662-112.168207 112.168207-112.168207h280.510831c61.990545 0 112.276582 50.177662 112.276582 112.168207v673.262119c0 61.990545-50.286037 112.240457-112.276582 112.240457z m56.138291-785.502576c0-30.959148-25.070768-56.138291-56.138291-56.138291h-280.510831c-30.959148 0-56.138291 25.179143-56.138291 56.138291v28.033021H708.411769v-28.033021h0.036125z m0 84.135187H315.660481v364.646017H708.411769V259.486065h0.036125z m0 420.784308H315.660481v168.306499c0 30.959148 25.179143 56.138291 56.138291 56.138291h280.510831c31.031398 0 56.138291-25.179143 56.138291-56.138291v-168.306499z m-196.339519 168.342624c-31.031398 0-56.138291-25.070768-56.138291-56.138292 0-30.959148 25.070768-56.066041 56.138291-56.066041 30.959148 0 56.029916 25.070768 56.029916 56.066041 0 31.031398-25.070768 56.138291-56.029916 56.138292z"/>
</svg>
