<?xml version="1.0" standalone="no"?><!DOCTYPE svg PUBLIC "-//W3C//DTD SVG 1.1//EN"
        "http://www.w3.org/Graphics/SVG/1.1/DTD/svg11.dtd">
<svg class="icon" width="200px" height="200.00px" viewBox="0 0 1024 1024" version="1.1"
     xmlns="http://www.w3.org/2000/svg">
    <path fill="#333333"
          d="M540.033021 63.146546v112.168207h140.309602c61.990545 0 112.168207 50.249912 112.168207 112.276583V848.576872c0 61.990545-50.177662 112.276582-112.168207 112.276582H343.693502c-61.990545 0-112.168207-50.249912-112.168207-112.276582V287.591336c0-62.02667 50.177662-112.276582 112.168207-112.276583h140.273477V119.284837h-56.138291c-15.461511 0-28.033021-12.535384-28.03302-28.10527a28.033021 28.033021 0 0 1 28.03302-28.033021h112.204333z m196.411768 224.44479c0-31.031398-25.179143-56.138291-56.138291-56.138291H343.693502c-30.959148 0-56.138291 25.070768-56.138291 56.138291V848.576872c0 31.031398 25.179143 56.138291 56.138291 56.138291h336.649121c30.959148 0 56.138291-25.106893 56.138291-56.138291V287.591336h-0.036125z m-224.444789 168.306498c-15.497636 0-28.033021-12.535384-28.033021-28.105271V315.624356c0-15.497636 12.535384-28.033021 28.033021-28.03302a28.033021 28.033021 0 0 1 28.033021 28.03302v112.168207c0 15.569886-12.535384 28.105271-28.033021 28.105271z"/>
</svg>
