<?xml version="1.0" standalone="no"?><!DOCTYPE svg PUBLIC "-//W3C//DTD SVG 1.1//EN"
        "http://www.w3.org/Graphics/SVG/1.1/DTD/svg11.dtd">
<svg class="icon" width="200px" height="200.00px" viewBox="0 0 1024 1024" version="1.1"
     xmlns="http://www.w3.org/2000/svg">
    <path fill="#333333"
          d="M735.722289 958.252452H286.83271c-61.918295 0-112.168207-50.249912-112.168207-112.276582V284.990334c0-62.02667 50.249912-112.276582 112.168207-112.276583h56.138291c0-61.918295 75.356805-112.168207 168.306498-112.168207 92.949693 0 168.306498 50.249912 168.306499 112.168207h56.138291c61.918295 0 112.168207 50.249912 112.168207 112.276583v560.985536c0.036125 62.02667-50.249912 112.276582-112.168207 112.276582zM511.277499 116.57546c-61.990545 0-112.168207 17.448388-112.168207 56.138291h224.37254c0-38.689903-50.177662-56.138291-112.204333-56.138291z m280.510831 168.414874c0-31.031398-25.106893-56.138291-56.029916-56.138291h-56.138291v168.306498h-56.138291V228.852043h-224.37254v168.306498H342.971001V228.852043H286.83271c-30.959148 0-56.029916 25.070768-56.029916 56.138291v448.817328h560.985536V284.990334z m0 504.95562H230.802794v56.029916c0 31.031398 25.070768 56.138291 56.029916 56.138291h448.889579c30.959148 0 56.029916-25.106893 56.029916-56.138291v-56.029916h0.036125z"/>
</svg>
