<?xml version="1.0" standalone="no"?><!DOCTYPE svg PUBLIC "-//W3C//DTD SVG 1.1//EN"
        "http://www.w3.org/Graphics/SVG/1.1/DTD/svg11.dtd">
<svg class="icon" width="200px" height="200.00px" viewBox="0 0 1024 1024" version="1.1"
     xmlns="http://www.w3.org/2000/svg">
    <path fill="#333333"
          d="M511.241374 961.937205c-201.397023 0-364.646017-163.248995-364.646017-364.646018 0-201.505398 227.732167-394.196289 364.646017-533.06089 142.440979 142.440979 364.754392 331.555493 364.754393 533.06089 0 201.433148-163.35737 364.646017-364.754393 364.646018z m0-813.535596c-115.816835 117.153461-308.507726 279.78833-308.507726 449.684329 0 170.004375 138.069851 307.712975 308.507726 307.712975 170.437875 0 308.616101-137.708601 308.616101-307.712975 0-169.895999-188.066888-329.496366-308.616101-449.684329z m0 673.262118c-108.447329 0-196.339519-86.736189-196.339518-193.738517 0-106.930078 122.68059-209.344528 196.339518-283.184083 76.693431 75.718055 196.411769 176.254004 196.411769 283.184083 0 107.002328-87.964439 193.738517-196.411769 193.738517z m-0.903125-406.659423c-52.561913 56.391166-139.045227 120.549213-139.045227 202.372398s62.713046 148.220984 139.948352 148.220984c77.307557 0 139.948353-66.361674 139.948353-148.220984s-86.230438-144.463981-140.851478-202.372398z"/>
</svg>
