<?xml version="1.0" standalone="no"?><!DOCTYPE svg PUBLIC "-//W3C//DTD SVG 1.1//EN"
        "http://www.w3.org/Graphics/SVG/1.1/DTD/svg11.dtd">
<svg class="icon" width="200px" height="200.00px" viewBox="0 0 1024 1024" version="1.1"
     xmlns="http://www.w3.org/2000/svg">
    <path fill="#333333"
          d="M848.685247 455.897834c0-200.060397-150.71361-336.649122-336.649122-336.649122S175.423128 268.914697 175.423128 455.897834h112.276583c61.918295 0 112.168207 50.177662 112.168207 112.168207v168.306498c0 60.328794-52.598039 109.60333-112.168207 112.168207 0.108375 0.180625-112.276582 0-112.276583 0-61.918295 0-112.168207-50.177662-112.168207-112.168207v-168.306498c0-42.157906 23.481267-78.391307 57.836168-97.573696-0.794751-9.537007-1.697876-18.929514-1.697877-28.647146 0-209.163903 175.784379-378.698652 392.679038-378.698653 216.894659 0 392.751288 169.570874 392.751288 378.698653 0 9.681507-0.975376 19.110139-1.770127 28.647146 34.318775 19.218514 57.908417 55.415791 57.908418 97.573696v168.306498c0 61.990545-50.249912 112.168207-112.276582 112.168207v84.171312c0 15.569886-12.535384 28.105271-28.033021 28.105271-15.497636 0-28.033021-12.535384-28.03302-28.105271v-84.171312s-56.210541 0.180625-56.138292 0c-59.606294-2.564877-112.168207-51.875538-112.168207-112.168207v-168.306498c0-62.02667 50.177662-112.168207 112.168207-112.168207h112.204333zM263.134693 792.546955h24.565018c30.959148 0 56.066041-25.179143 56.066041-56.138291v-168.306498c0-30.959148-25.070768-56.138291-56.066041-56.138291h-35.330276c-13.07726 38.870528-20.808015 81.317435-20.808015 126.220842 0 56.138291 11.849009 108.447329 31.573273 154.362238z m-143.741481-224.444789v168.306498c0 30.959148 25.070768 56.138291 56.029916 56.138291h26.51577c-16.653637-46.637409-26.515769-98.729697-26.51577-154.362238 0-44.650533 6.574755-86.989064 17.629013-126.220842h-17.629013c-30.959148 0-56.029916 25.179143-56.029916 56.138291z m652.417978-56.138291h-35.330276c-30.959148 0-56.138291 25.179143-56.138291 56.138291v168.306498c0 30.959148 25.179143 56.138291 56.138291 56.138291h24.456643c19.760389-45.914909 31.681648-98.223947 31.681649-154.362238 0.036125-44.903408-7.803006-87.350314-20.808016-126.220842z m133.012348 56.138291c0-30.959148-25.070768-56.138291-56.138291-56.138291h-17.629013c11.018133 39.231779 17.629013 81.57031 17.629013 126.220842 0 55.596416-9.789882 107.724829-26.407395 154.362238h26.407395c31.067523 0 56.138291-25.179143 56.138291-56.138291v-168.306498z"/>
</svg>
