<?xml version="1.0" standalone="no"?><!DOCTYPE svg PUBLIC "-//W3C//DTD SVG 1.1//EN"
        "http://www.w3.org/Graphics/SVG/1.1/DTD/svg11.dtd">
<svg class="icon" width="200px" height="200.00px" viewBox="0 0 1024 1024" version="1.1"
     xmlns="http://www.w3.org/2000/svg">
    <path fill="#333333"
          d="M821.085726 961.720454H203.853524c-61.918295 0-112.168207-50.249912-112.168207-112.276582V176.181754c0-61.918295 50.249912-112.168207 112.168207-112.168207h617.232202c61.918295 0 112.168207 50.249912 112.168208 112.168207v673.262118c0 62.02667-50.249912 112.276582-112.168208 112.276582zM877.115642 176.181754c0-30.959148-25.106893-56.066041-56.029916-56.066041H203.853524c-30.959148 0-56.138291 25.070768-56.138291 56.066041v56.138291H877.115642V176.181754z m0 112.276582H147.715233v560.985536c0 31.031398 25.179143 56.138291 56.138291 56.138291h617.232202c30.959148 0 56.029916-25.106893 56.029916-56.138291V288.458336z m-140.201227 504.95562c-46.529034 0-84.171312-37.714528-84.171312-84.171312 0-46.529034 37.642278-84.135187 84.171312-84.135186 46.456784 0 84.171312 37.642278 84.171311 84.135186 0 46.456784-37.714528 84.171312-84.171311 84.171312z m28.03302-112.276582h-56.138291v56.138291h56.138291v-56.138291z m-28.03302-112.168207c-46.529034 0-84.171312-37.642278-84.171312-84.171312 0-46.420659 37.642278-84.135187 84.171312-84.135187 46.456784 0 84.171312 37.714528 84.171311 84.135187 0 46.529034-37.714528 84.171312-84.171311 84.171312z m28.03302-112.204332h-56.138291v56.029916h56.138291v-56.029916z m-252.47781 336.649121c-46.529034 0-84.171312-37.714528-84.171311-84.171312 0-46.529034 37.642278-84.135187 84.171311-84.135186 46.456784 0 84.171312 37.642278 84.171312 84.135186 0 46.456784-37.750653 84.171312-84.171312 84.171312z m28.033021-112.276582H484.436605v56.138291h56.029916v-56.138291h0.036125z m-28.033021-112.168207c-46.529034 0-84.171312-37.642278-84.171311-84.171312 0-46.420659 37.642278-84.135187 84.171311-84.135187 46.456784 0 84.171312 37.714528 84.171312 84.135187 0 46.529034-37.750653 84.171312-84.171312 84.171312z m28.033021-112.204332H484.436605v56.029916h56.029916v-56.029916h0.036125z m-252.47781 336.649121c-46.420659 0-84.171312-37.714528-84.171312-84.171312 0-46.529034 37.714528-84.135187 84.171312-84.135186 46.529034 0 84.171312 37.642278 84.171312 84.135186-0.036125 46.456784-37.642278 84.171312-84.171312 84.171312z m28.105271-112.276582H259.991815v56.138291h56.138292v-56.138291z m-28.105271-112.168207c-46.420659 0-84.171312-37.642278-84.171312-84.171312 0-46.420659 37.714528-84.135187 84.171312-84.135187 46.529034 0 84.171312 37.714528 84.171312 84.135187-0.036125 46.529034-37.642278 84.171312-84.171312 84.171312z m28.105271-112.204332H259.991815v56.029916h56.138292v-56.029916z"/>
</svg>
