<?xml version="1.0" standalone="no"?><!DOCTYPE svg PUBLIC "-//W3C//DTD SVG 1.1//EN"
        "http://www.w3.org/Graphics/SVG/1.1/DTD/svg11.dtd">
<svg class="icon" width="200px" height="200.00px" viewBox="0 0 1024 1024" version="1.1"
     xmlns="http://www.w3.org/2000/svg">
    <path fill="#333333"
          d="M850.130248 906.087914H176.86813c-30.959148 0-56.029916-25.179143-56.029916-56.138291V176.687504c0-30.959148 25.106893-56.138291 56.029916-56.138291h673.262118c31.031398 0 56.138291 25.179143 56.138291 56.138291v673.262119c0 30.959148-25.070768 56.138291-56.138291 56.138291z m0-701.403514a28.033021 28.033021 0 0 0-28.033021-28.033021H204.9734c-15.569886 0-28.105271 12.535384-28.10527 28.033021v617.232202c0 15.497636 12.535384 28.033021 28.10527 28.033021h617.123827c15.497636 0 28.033021-12.535384 28.033021-28.033021V204.6844z"/>
</svg>
