<?xml version="1.0" standalone="no"?><!DOCTYPE svg PUBLIC "-//W3C//DTD SVG 1.1//EN"
        "http://www.w3.org/Graphics/SVG/1.1/DTD/svg11.dtd">
<svg class="icon" width="200px" height="200.00px" viewBox="0 0 1024 1024" version="1.1"
     xmlns="http://www.w3.org/2000/svg">
    <path fill="#333333"
          d="M512 961.106329c-55.957666 0.252875-336.649122-420.350808-336.649122-561.093911 0-185.935511 150.71361-336.612997 336.649122-336.612997s336.649122 150.71361 336.649122 336.612997c0 138.864602-281.558456 561.346786-336.649122 561.093911z m0-841.604741c-154.867988 0-280.51083 125.606717-280.51083 280.51083 0 117.334086 233.873421 477.175474 280.51083 476.922599 45.914909 0.252875 280.51083-361.178015 280.51083-476.922599 0-154.867988-125.534467-280.51083-280.51083-280.51083z m0 420.784308c-77.488182 0-140.309603-62.821421-140.309603-140.309603 0-77.488182 62.821421-140.273478 140.309603-140.273478 77.488182 0 140.309603 62.821421 140.309603 140.273478 0 77.524307-62.821421 140.309603-140.309603 140.309603z m0-224.44479c-46.456784 0-84.171312 37.714528-84.171312 84.135187 0 46.529034 37.714528 84.171312 84.171312 84.171312 46.529034 0 84.171312-37.642278 84.171312-84.171312 0-46.384534-37.642278-84.135187-84.171312-84.135187z"/>
</svg>
