<?xml version="1.0" standalone="no"?><!DOCTYPE svg PUBLIC "-//W3C//DTD SVG 1.1//EN"
        "http://www.w3.org/Graphics/SVG/1.1/DTD/svg11.dtd">
<svg class="icon" width="200px" height="200.00px" viewBox="0 0 1024 1024" version="1.1"
     xmlns="http://www.w3.org/2000/svg">
    <path fill="#333333"
          d="M852.755353 63.144319H179.516986c-61.988359 0-112.272621 50.248139-112.272622 112.16425V848.546936c0 61.988359 50.248139 112.272621 112.272622 112.272622h673.238367c61.916111 0 112.16425-50.248139 112.16425-112.272622V175.344693c0-61.916111-50.248139-112.200374-112.16425-112.200374zM291.681236 119.280629h448.801496v252.468904a28.032032 28.032032 0 0 1-28.032032 28.032031H319.713268a28.032032 28.032032 0 0 1-28.032032-28.032031V119.280629z m617.138181 729.302431c0 31.030303-25.106008 56.136311-56.02794 56.136311H179.516986c-31.030303 0-56.136311-25.106008-56.136311-56.136311V175.344693c0-30.958056 25.106008-56.064063 56.136311-56.064064H235.544925v280.500935c0 30.958056 25.178255 56.136311 56.136311 56.136311h448.801496c31.030303 0 56.136311-25.178255 56.136311-56.136311V119.280629h56.13631c30.958056 0 56.027939 25.069884 56.02794 56.064064v673.238367z"/>
    <path fill="#333333"
          d="M600.28645 343.645253c-15.460966 0-28.104279-12.534942-28.104279-28.032031V203.448972c0-15.49709 12.643313-28.104279 28.104279-28.104279 15.49709 0 28.032032 12.643313 28.032032 28.104279v112.16425c0 15.49709-12.534942 28.032032-28.032032 28.032031z"/>
</svg>
