<?xml version="1.0" standalone="no"?><!DOCTYPE svg PUBLIC "-//W3C//DTD SVG 1.1//EN"
        "http://www.w3.org/Graphics/SVG/1.1/DTD/svg11.dtd">
<svg class="icon" width="200px" height="200.00px" viewBox="0 0 1024 1024" version="1.1"
     xmlns="http://www.w3.org/2000/svg">
    <path fill="#333333"
          d="M709.531645 203.456149c-41.18253-83.448811-126.871093-141.104353-226.323291-141.104353-133.192973 0-242.073802 103.281451-251.502434 234.162421-97.934947 27.924645-169.281874 113.432583-169.281874 214.763282 0 119.465462 99.271573 217.508784 224.444789 224.37254h420.784308c137.527976 0 252.47781-119.284837 252.47781-266.458195 0-154.109363-110.831581-257.463064-250.599308-265.735695z m-29.875397 476.127849H314.901856c-140.562478-1.589501-196.339519-109.061455-196.339519-168.306499 0-76.512806 67.951175-162.454244 168.306498-168.306498-0.867001-114.082834 69.685176-224.480914 196.339519-224.480914 96.16482 0 159.961617 58.883793 182.901009 140.562478 129.72497-5.960629 237.883299 85.507938 237.883299 196.086643 0 117.767586-84.785437 224.444789-224.336414 224.44479zM371.040147 791.752205c15.461511 0 28.033021 12.535384 28.03302 28.10527 0 15.497636-12.535384 28.033021-28.03302 28.033021-15.497636 0-28.033021-12.535384-28.033021-28.033021 0-15.569886 12.535384-28.105271 28.033021-28.10527zM427.178438 904.028787a28.033021 28.033021 0 0 1 0 56.066041c-15.569886 0-28.105271-12.535384-28.105271-28.03302 0-15.497636 12.535384-28.033021 28.105271-28.033021zM539.346645 791.752205c15.461511 0 28.033021 12.535384 28.033021 28.10527 0 15.497636-12.535384 28.033021-28.033021 28.033021a28.033021 28.033021 0 0 1-28.033021-28.033021c0.036125-15.569886 12.571509-28.105271 28.033021-28.10527zM595.484936 904.028787a28.033021 28.033021 0 0 1 0 56.066041c-15.461511 0-28.105271-12.535384-28.10527-28.03302 0-15.497636 12.643759-28.033021 28.10527-28.033021zM707.653143 791.752205c15.461511 0 28.033021 12.535384 28.033021 28.10527 0 15.497636-12.535384 28.033021-28.033021 28.033021-15.497636 0-28.033021-12.535384-28.03302-28.033021 0.036125-15.569886 12.571509-28.105271 28.03302-28.10527z"/>
</svg>
