<?xml version="1.0" standalone="no"?><!DOCTYPE svg PUBLIC "-//W3C//DTD SVG 1.1//EN"
        "http://www.w3.org/Graphics/SVG/1.1/DTD/svg11.dtd">
<svg class="icon" width="200px" height="200.00px" viewBox="0 0 1024 1024" version="1.1"
     xmlns="http://www.w3.org/2000/svg">
    <path fill="#333333"
          d="M904.787413 427.937063c-15.497636 0-28.033021-12.535384-28.033021-28.03302V203.456149H147.353983v196.411769a28.033021 28.033021 0 0 1-28.033021 28.03302c-15.461511 0-28.105271-12.535384-28.10527-28.03302V175.459254c0-15.461511 12.643759-28.033021 28.10527-28.033021h785.430326a28.033021 28.033021 0 0 1 28.03302 28.033021v224.444789c0 15.461511-12.535384 28.033021-27.996895 28.03302z m-513.336626 232.789671l92.516192 112.168207V371.871022c0-15.461511 12.535384-28.105271 28.033021-28.10527 15.569886 0 28.105271 12.643759 28.105271 28.10527v399.976293l91.649192-111.120581a28.148621 28.148621 0 0 1 39.845904 0c10.945883 11.126508 10.945883 29.008396 0 40.026529l-138.683977 168.053623c-5.888379 5.852254-13.619135 8.453256-21.34989 8.019756-7.658506 0.4335-15.389261-2.131377-21.277641-8.019756l-138.683976-168.053623c-10.945883-11.018133-10.945883-28.900021 0-40.026529a28.148621 28.148621 0 0 1 39.845904 0z"/>
</svg>
