<?xml version="1.0" standalone="no"?><!DOCTYPE svg PUBLIC "-//W3C//DTD SVG 1.1//EN"
        "http://www.w3.org/Graphics/SVG/1.1/DTD/svg11.dtd">
<svg class="icon" width="200px" height="200.00px" viewBox="0 0 1024 1024" version="1.1"
     xmlns="http://www.w3.org/2000/svg">
    <path fill="#333333"
          d="M819.893601 960.347703H202.661398c-61.918295 0-112.168207-50.177662-112.168207-112.168207V174.917378c0-61.990545 50.249912-112.168207 112.168207-112.168207h617.232203c61.990545 0 112.168207 50.177662 112.168207 112.168207v673.262118c0 61.990545-50.177662 112.168207-112.168207 112.168207zM876.031892 174.917378c0-30.959148-25.179143-56.138291-56.138291-56.138291H202.661398c-30.959148 0-56.029916 25.179143-56.029916 56.138291v561.093911H876.031892V174.917378z m0 617.123827H146.631482v56.138291c0 30.959148 25.106893 56.138291 56.029916 56.138291h617.232203c30.959148 0 56.138291-25.179143 56.138291-56.138291v-56.138291zM390.728286 435.306569l92.516193 111.915332v-344.271502c0-15.497636 12.535384-28.033021 28.03302-28.033021 15.497636 0 28.105271 12.535384 28.105271 28.033021v343.223876l91.613067-110.831581c10.945883-11.018133 28.827771-11.018133 39.773654 0 11.018133 11.018133 11.018133 28.900021 0 39.954279L532.19389 643.025471c-5.888379 5.852254-13.619135 8.344881-21.349891 7.911381-7.658506 0.4335-15.497636-2.059127-21.27764-7.911381l-138.683977-167.764623c-11.018133-11.018133-11.018133-28.900021 0-39.954279a28.148621 28.148621 0 0 1 39.845904 0z"/>
</svg>
