<?xml version="1.0" standalone="no"?><!DOCTYPE svg PUBLIC "-//W3C//DTD SVG 1.1//EN"
        "http://www.w3.org/Graphics/SVG/1.1/DTD/svg11.dtd">
<svg class="icon" width="200px" height="200.00px" viewBox="0 0 1024 1024" version="1.1"
     xmlns="http://www.w3.org/2000/svg">
    <path fill="#333333"
          d="M852.755353 958.977246H179.516986c-61.988359 0-112.272621-50.248139-112.272622-112.16425V173.538505c0-62.024482 50.248139-112.272621 112.272622-112.272621h673.238367c61.916111 0 112.16425 50.248139 112.16425 112.272621v673.238367c0 61.916111-50.248139 112.200374-112.16425 112.200374z m56.064064-785.438741c0-31.030303-25.069884-56.136311-56.02794-56.136311H179.516986c-31.030303 0-56.136311 25.069884-56.136311 56.136311v673.238367c0 30.958056 25.069884 56.136311 56.136311 56.136311h673.238367c30.958056 0 56.027939-25.178255 56.02794-56.136311V173.538505h0.036124z m-140.232406 673.238367H263.685328c-15.460966 0-28.104279-12.534942-28.104279-28.032031 0-15.569337 12.643313-28.104279 28.104279-28.104279h504.937807c15.49709 0 28.032032 12.534942 28.032031 28.104279a28.068155 28.068155 0 0 1-28.068155 28.032031z m-231.553251-121.050693c-5.888172 5.960419-13.690902 8.452958-21.349137 8.019473-7.730483 0.433485-15.49709-2.059054-21.349138-8.019473l-138.606836-167.794828c-11.017744-11.017744-11.017744-28.899002 0-39.95287 10.945497-11.017744 28.826754-11.017744 39.772251 0l92.512929 111.983631V201.570537c0-15.460966 12.643313-28.032032 28.104279-28.032032 15.49709 0 28.032032 12.534942 28.032031 28.032032v427.343987L635.796098 518.014605a28.147628 28.147628 0 0 1 39.844499 0c11.017744 11.017744 11.017744 28.899002 0 39.95287l-138.606837 167.758704z"/>
</svg>
