<?xml version="1.0" standalone="no"?><!DOCTYPE svg PUBLIC "-//W3C//DTD SVG 1.1//EN"
        "http://www.w3.org/Graphics/SVG/1.1/DTD/svg11.dtd">
<svg class="icon" width="200px" height="200.00px" viewBox="0 0 1024 1024" version="1.1"
     xmlns="http://www.w3.org/2000/svg">
    <path fill="#333333"
          d="M819.712975 263.712693l-186.730261-186.730262c-10.945883-10.945883-28.105271-10.331758-39.665279 0-8.344881 7.47788-6.213505 20.91639-6.213505 36.305652v486.098356c-62.279546-46.167784-164.946871-46.240034-255.945812 6.32188-113.179708 65.314048-165.127496 186.983137-116.178086 271.768574 49.021661 84.857687 180.408382 100.716574 293.479715 35.402526 87.892189-50.719537 139.298102-135.504974 134.782474-210.50053V168.523248l136.805475 134.854724c10.945883 10.945883 28.755521 10.945883 39.665279 0 10.945883-10.909758 10.945883-28.719396 0-39.665279z m-328.52099 602.276441c-82.834686 51.586538-184.237635 49.021661-224.37254-10.404007-40.026529-59.353418-3.648628-153.097862 79.077683-204.792775 82.834686-51.586538 186.983137-46.276159 227.118042 13.149509 40.062654 59.425669 0.903126 150.35236-81.823185 202.047273z"/>
</svg>
