<?xml version="1.0" standalone="no"?><!DOCTYPE svg PUBLIC "-//W3C//DTD SVG 1.1//EN"
        "http://www.w3.org/Graphics/SVG/1.1/DTD/svg11.dtd">
<svg class="icon" width="200px" height="200.00px" viewBox="0 0 1024 1024" version="1.1"
     xmlns="http://www.w3.org/2000/svg">
    <path fill="#333333"
          d="M734.241163 116.033585c-0.4335-15.136386-13.00501-28.033021-28.285896-28.033021-26.94927 0-28.213646 28.105271-28.213646 28.105271v458.968461c-62.713046-46.240034-166.283497-46.348409-258.004939 6.32188-114.046709 65.458548-162.887744 187.452762-117.08121 272.418824 46.709659 86.555563 181.853383 100.861074 295.791716 35.402526 88.506315-50.791787 136.010725-133.337473 135.75785-212.09003V116.033585h0.036125z m-153.170112 726.257532c-83.701686 51.333663-185.646511 49.093911-226.034291-10.404008-40.38778-59.534044-3.757003-153.459112 79.691808-205.226275 83.376561-51.767163 188.428138-46.348409 228.815918 13.14951 39.737529 64.266422-7.658506 156.493615-82.473435 202.480773z"/>
</svg>
