<?xml version="1.0" standalone="no"?><!DOCTYPE svg PUBLIC "-//W3C//DTD SVG 1.1//EN"
        "http://www.w3.org/Graphics/SVG/1.1/DTD/svg11.dtd">
<svg class="icon" width="200px" height="200.00px" viewBox="0 0 1024 1024" version="1.1"
     xmlns="http://www.w3.org/2000/svg">
    <path fill="#333333"
          d="M736.444789 961.034079H287.663586c-61.990545 0-112.276582-50.177662-112.276583-112.168207V175.603754c0-62.02667 50.249912-112.204332 112.276583-112.204333h448.817328c61.990545 0 112.168207 50.177662 112.168208 112.204333v673.262118c0 61.990545-50.177662 112.168207-112.204333 112.168207zM792.583081 175.603754c0-30.959148-25.179143-56.138291-56.138292-56.138292H287.663586c-31.031398 0-56.138291 25.179143-56.138291 56.138292v673.262118c0 30.959148 25.070768 56.138291 56.138291 56.138291H736.480914c30.959148 0 56.138291-25.179143 56.138292-56.138291V175.603754h-0.036125z m-280.583081 280.51083c-77.379807 0-140.201228-62.821421-140.201228-140.201228 0-77.488182 62.821421-140.273478 140.201228-140.273477 77.488182 0 140.309603 62.821421 140.309603 140.273477 0 77.379807-62.821421 140.201228-140.309603 140.201228z m0-224.625414c-46.529034 0-84.351937 37.822903-84.351937 84.424186 0 46.529034 37.822903 84.351937 84.351937 84.351937 46.601284 0 84.424187-37.822903 84.424187-84.351937 0-46.637409-37.786778-84.424187-84.424187-84.424186zM315.660481 708.592394c0-108.447329 87.892189-196.339519 196.339519-196.339519 108.447329 0 196.411769 87.892189 196.411769 196.339519 0 108.519579-87.964439 196.411769-196.411769 196.411769-108.447329 0-196.339519-87.892189-196.339519-196.411769z m196.339519 140.273478c77.488182 0 140.309603-62.821421 140.309603-140.273478 0-77.415932-62.821421-140.201228-140.309603-140.201228-77.379807 0-140.201228 62.821421-140.201228 140.201228 0 77.488182 62.821421 140.273478 140.201228 140.273478z"/>
</svg>
