<?xml version="1.0" standalone="no"?><!DOCTYPE svg PUBLIC "-//W3C//DTD SVG 1.1//EN"
        "http://www.w3.org/Graphics/SVG/1.1/DTD/svg11.dtd">
<svg class="icon" width="200px" height="200.00px" viewBox="0 0 1024 1024" version="1.1"
     xmlns="http://www.w3.org/2000/svg">
    <path fill="#333333"
          d="M928.62993 88.000564c-4.190503 0-8.092006 1.083751-11.740633 2.745502L451.779581 200.168772c-15.569886 0-28.105271 12.535384-28.105271 28.03302v392.859663c-58.883793-38.328653-153.639738-38.328653-238.172299 6.68313-106.677203 56.680167-155.698864 162.454244-109.494955 236.113173 46.167784 73.767304 170.11275 87.458689 276.753827 30.778522 68.78205-36.558527 116.28646-105.846328 127.051718-161.478868V249.660058L900.59691 150.64136v358.179638c-58.883793-38.256403-153.639738-38.256403-238.136175 6.68313-106.677203 56.752417-155.698864 162.526494-109.53108 236.185423 46.167784 73.658929 174.917378 90.998942 281.991957 35.14965 80.161434-41.905031 115.383335-106.749453 121.777464-165.813871V116.06971c0.036125-15.533761-12.607634-28.069146-28.069146-28.069146zM339.502999 845.433994c-81.209059 44.036407-173.942002 44.939533-212.993156-3.540252-39.051154-48.479786-4.804629-123.222465 76.693431-166.897623 81.389685-43.675157 152.844987-42.013406 200.963522-6.394129 52.778664 38.942779 4.551753 139.261977-64.663797 176.832004z m481.185352-106.930078c-80.342059 44.831158-178.638256 38.328653-217.255909-10.223383-38.509278-48.588161-3.829253-122.75284 77.488182-165.633246 81.389685-42.880406 155.771114-44.650533 200.241021-4.985254 47.901785 42.663656 6.863755 143.199605-60.473294 180.841883z"/>
</svg>
