<?xml version="1.0" standalone="no"?><!DOCTYPE svg PUBLIC "-//W3C//DTD SVG 1.1//EN"
        "http://www.w3.org/Graphics/SVG/1.1/DTD/svg11.dtd">
<svg class="icon" width="200px" height="200.00px" viewBox="0 0 1024 1024" version="1.1"
     xmlns="http://www.w3.org/2000/svg">
    <path fill="#333333"
          d="M289.108587 847.13187c-125.064842-6.863755-224.372539-104.256826-224.37254-223.722288 0-101.222324 71.274677-186.802512 169.209624-214.763283 9.428632-130.772596 118.309462-234.054046 251.574685-234.054046 99.379948 0 185.140761 57.547167 226.214915 140.995978 139.767727 8.344881 250.599309 123.908841 250.599309 265.735695 0 147.245608-133.337473 266.530445-280.510831 266.530445-4.660128 0-392.715163-0.722501-392.715162-0.722501z m-168.342624-223.722288c-1.083751 150.966486 168.306498 168.306498 168.306499 168.306498h392.751287c100.969449 0 230.333169-100.608199 224.44479-224.44479-4.443378-92.082692-98.404572-202.047273-237.449799-195.978268-22.867142-81.85931-87.097439-140.670853-183.334509-140.670853-122.066464 0-196.411769 108.266704-196.411769 224.444789-92.841318 5.165879-167.656248 83.195936-168.306499 168.342624z"/>
</svg>
