<?xml version="1.0" standalone="no"?><!DOCTYPE svg PUBLIC "-//W3C//DTD SVG 1.1//EN"
        "http://www.w3.org/Graphics/SVG/1.1/DTD/svg11.dtd">
<svg class="icon" width="200px" height="200.00px" viewBox="0 0 1024 1024" version="1.1"
     xmlns="http://www.w3.org/2000/svg">
    <path fill="#333333"
          d="M847.962746 961.720454H174.700628c-61.990545 0-112.276582-50.249912-112.276582-112.276582V176.181754c0-61.918295 50.249912-112.168207 112.276582-112.168207h673.262118c61.918295 0 112.168207 50.249912 112.168207 112.168207v673.262118c0 62.02667-50.249912 112.276582-112.168207 112.276582z m56.029916-785.5387c0-30.959148-25.106893-56.066041-56.029916-56.066041H174.700628c-31.031398 0-56.138291 25.070768-56.138291 56.066041v673.262118c0 31.031398 25.070768 56.138291 56.138291 56.138291h673.262118c30.959148 0 56.029916-25.106893 56.029916-56.138291V176.181754z m-84.135187 673.262118a28.033021 28.033021 0 0 1 0-56.066041c15.497636 0 28.105271 12.535384 28.105271 28.033021 0 15.497636-12.643759 28.033021-28.105271 28.03302z m-308.543851 0c-185.935511 0-336.649122-150.71361-336.649121-336.649121 0-185.827136 150.71361-336.612997 336.649121-336.612997 185.827136 0 336.649122 150.78586 336.649122 336.612997 0 185.935511-150.78586 336.649122-336.649122 336.649121z m0-617.123827c-154.976364 0-280.583081 125.606717-280.58308 280.474706 0 154.976364 125.606717 280.583081 280.58308 280.58308 154.867988 0 280.51083-125.606717 280.510831-280.58308 0-154.867988-125.606717-280.474705-280.510831-280.474706z m0 448.817329c-92.985818 0-168.306498-75.356805-168.306498-168.306498s75.356805-168.306498 168.306498-168.306499c92.949693 0 168.306498 75.356805 168.306499 168.306499s-75.32068 168.306498-168.306499 168.306498z m0-280.510831c-62.02667 0-112.276582 50.249912-112.276582 112.168208 0 61.990545 50.249912 112.276582 112.276582 112.276582 61.918295 0 112.168207-50.249912 112.168208-112.276582 0.036125-61.88217-50.249912-112.168207-112.168208-112.168208z m308.543851-168.306498a28.033021 28.033021 0 0 1-28.03302-28.03302c0-15.497636 12.535384-28.105271 28.03302-28.105271 15.497636 0 28.105271 12.643759 28.105271 28.105271 0 15.497636-12.643759 28.033021-28.105271 28.03302z m-617.123827 0a28.033021 28.033021 0 0 1-28.03302-28.03302c0-15.497636 12.535384-28.105271 28.03302-28.105271 15.461511 0 28.033021 12.643759 28.033021 28.105271-0.036125 15.497636-12.571509 28.033021-28.033021 28.03302z m0 561.093911a28.033021 28.033021 0 0 1 28.033021 28.033021c0 15.497636-12.535384 28.033021-28.033021 28.03302a28.033021 28.033021 0 0 1-28.03302-28.03302c0-15.497636 12.535384-28.033021 28.03302-28.033021z"/>
</svg>
