<?xml version="1.0" standalone="no"?><!DOCTYPE svg PUBLIC "-//W3C//DTD SVG 1.1//EN"
        "http://www.w3.org/Graphics/SVG/1.1/DTD/svg11.dtd">
<svg class="icon" width="200px" height="200.00px" viewBox="0 0 1024 1024" version="1.1"
     xmlns="http://www.w3.org/2000/svg">
    <path fill="#333333"
          d="M853.778875 932.314683H180.516757c-61.990545 0-112.168207-50.249912-112.168207-112.168207V202.950399c0-61.918295 50.177662-112.168207 112.168207-112.168208h673.262118c61.990545 0 112.168207 50.249912 112.168207 112.168208v617.232202c0.036125 61.88217-50.141537 112.132082-112.168207 112.132082zM236.655048 146.884358H180.516757c-30.959148 0-56.138291 25.070768-56.138291 56.029916v617.232202c0 30.959148 25.179143 56.029916 56.138291 56.029916h56.138291V146.884358z m673.262118 56.066041c0-30.959148-25.179143-56.029916-56.138291-56.029916H292.721089v729.292034h561.093911c30.959148 0 56.138291-25.070768 56.138291-56.029916V202.950399h-0.036125z m-84.135186 336.612996h-343.296127l110.939957 91.613067c11.018133 11.018133 11.018133 28.900021 0 39.845904-11.018133 11.018133-28.900021 11.018133-39.95428 0l-167.764622-138.611726c-5.888379-5.852254-8.344881-13.691385-8.019756-21.349891-0.36125-7.658506 2.131377-15.497636 8.019756-21.34989l167.764622-138.611727c11.018133-11.018133 28.900021-11.018133 39.95428 0 11.018133 10.945883 11.018133 28.827771 0 39.773654l-111.987582 92.624568h344.379877c15.497636 0 28.033021 12.535384 28.03302 28.033021-0.07225 15.497636-12.607634 28.033021-28.069145 28.03302z"/>
</svg>
