<?xml version="1.0" standalone="no"?><!DOCTYPE svg PUBLIC "-//W3C//DTD SVG 1.1//EN"
        "http://www.w3.org/Graphics/SVG/1.1/DTD/svg11.dtd">
<svg class="icon" width="200px" height="200.00px" viewBox="0 0 1024 1024" version="1.1"
     xmlns="http://www.w3.org/2000/svg">
    <path fill="#333333"
          d="M792.546955 763.755309H231.453045c-92.985818 0-168.306498-75.356805-168.306499-168.306498v-168.306498c0-92.985818 75.356805-168.306498 168.306499-168.306498h561.09391c92.949693 0 168.306498 75.356805 168.306499 168.306498v168.306498c0 92.949693-75.356805 168.306498-168.306499 168.306498z m112.168208-336.649121c0-62.02667-50.177662-112.168207-112.168208-112.168207H231.453045c-61.918295 0-112.168207 50.177662-112.168208 112.168207v168.306498c0 61.990545 50.249912 112.276582 112.168208 112.276582h561.09391c61.990545 0 112.168207-50.286037 112.168208-112.276582v-168.306498z m-98.115572 140.309603c-23.300642 0-42.085656-18.857264-42.085656-42.085656 0-23.228392 18.785014-42.085656 42.085656-42.085656 23.228392 0 42.085656 18.857264 42.085656 42.085656 0 23.228392-18.857264 42.085656-42.085656 42.085656z m-84.171312-112.276583c-23.300642 0-42.085656-18.785014-42.085656-42.085655 0-23.228392 18.785014-42.085656 42.085656-42.085656 23.228392 0 42.085656 18.857264 42.085656 42.085656 0 23.300642-18.857264 42.085656-42.085656 42.085655z m13.980385 154.362238c0 23.228392-18.857264 42.085656-42.085655 42.085656-23.228392 0-42.085656-18.857264-42.085656-42.085656 0-23.228392 18.857264-42.085656 42.085656-42.085655 23.228392 0 42.085656 18.857264 42.085655 42.085655z m-126.220842-70.190926c-23.228392 0-42.085656-18.785014-42.085656-42.085656 0-23.228392 18.857264-42.085656 42.085656-42.085656 23.228392 0 42.085656 18.857264 42.085656 42.085656-0.036125 23.300642-18.893389 42.085656-42.085656 42.085656z m-182.286884 0h-84.171311v84.171312c0 15.569886-12.643759 28.105271-28.105271 28.10527s-28.033021-12.535384-28.03302-28.10527v-84.171312h-84.171312c-15.461511 0-28.105271-12.535384-28.105271-28.033021 0-15.497636 12.643759-28.033021 28.105271-28.03302h84.171312v-84.171312c0-15.461511 12.535384-28.105271 28.03302-28.10527s28.105271 12.643759 28.105271 28.10527v84.171312h84.171311c15.497636 0 28.033021 12.535384 28.033021 28.03302-0.036125 15.461511-12.571509 28.033021-28.033021 28.033021z"/>
</svg>
