<?xml version="1.0" standalone="no"?><!DOCTYPE svg PUBLIC "-//W3C//DTD SVG 1.1//EN"
        "http://www.w3.org/Graphics/SVG/1.1/DTD/svg11.dtd">
<svg class="icon" width="200px" height="200.00px" viewBox="0 0 1024 1024" version="1.1"
     xmlns="http://www.w3.org/2000/svg">
    <path fill="#333333"
          d="M876.031892 284.340083V88.000564c0-15.461511-6.574755-24.095393-20.988641-29.803146-11.126508-4.443378-21.964016-1.770126-35.041275 1.697876L90.601566 284.340083V901.572285c0 30.959148 25.070768 56.029916 56.029916 56.029916H876.031892c30.959148 0 56.138291-25.070768 56.138291-56.029916V340.478374c0-30.959148-25.179143-56.138291-56.138291-56.138291z m-56.029916-168.306498v168.306498H272.88845l547.113526-168.306498z m56.029916 533.06089v28.033021h-112.168208v-28.033021-28.10527h112.168208v28.10527z m0-84.243561h-140.201228c-15.569886 0-28.105271 12.643759-28.105271 28.10527v112.204332c0 15.497636 12.535384 28.105271 28.105271 28.105271h140.201228v140.201228c0 15.461511-12.535384 28.105271-28.033021 28.10527H174.736753c-15.461511 0-28.105271-12.643759-28.105271-28.10527V340.478374h701.367389c15.497636 0 28.033021 12.535384 28.033021 28.033021v196.339519z"/>
</svg>
