<?xml version="1.0" standalone="no"?><!DOCTYPE svg PUBLIC "-//W3C//DTD SVG 1.1//EN"
        "http://www.w3.org/Graphics/SVG/1.1/DTD/svg11.dtd">
<svg class="icon" width="200px" height="200.00px" viewBox="0 0 1024 1024" version="1.1"
     xmlns="http://www.w3.org/2000/svg">
    <path fill="#333333"
          d="M845.217244 932.314683H171.955126c-61.918295 0-112.168207-50.249912-112.168207-112.168207V202.950399c0-61.918295 50.249912-112.168207 112.168207-112.168208h673.262118c61.990545 0 112.276582 50.249912 112.276582 112.168208v617.232202c0 61.88217-50.249912 112.132082-112.276582 112.132082zM733.049037 146.884358H171.955126c-30.959148 0-56.029916 25.070768-56.029916 56.029916v617.232202c0 30.959148 25.070768 56.029916 56.029916 56.029916h561.093911V146.884358z m168.306498 56.066041c0-30.959148-25.070768-56.029916-56.138291-56.029916h-56.029916v729.292034h56.029916c31.031398 0 56.138291-25.070768 56.138291-56.029916V202.950399zM200.060397 483.533479h343.223876l-110.939956-91.721442c-11.018133-10.945883-11.018133-28.827771 0-39.773654 11.018133-11.018133 28.900021-11.018133 39.954279 0l167.764623 138.611726c5.888379 5.888379 8.381006 13.691385 8.019756 21.349891 0.36125 7.658506-2.131377 15.497636-8.019756 21.349891L472.298596 671.925492c-11.018133 11.018133-28.900021 11.018133-39.954279 0a28.148621 28.148621 0 0 1 0-39.845904l111.987582-92.516193h-344.271502c-15.569886 0-28.105271-12.535384-28.105271-28.03302 0-15.461511 12.535384-27.996896 28.105271-27.996896z"/>
</svg>
